G04*
G04 #@! TF.GenerationSoftware,Altium Limited,Altium Designer,21.8.1 (53)*
G04*
G04 Layer_Physical_Order=1*
G04 Layer_Color=255*
%FSLAX44Y44*%
%MOMM*%
G71*
G04*
G04 #@! TF.SameCoordinates,89A26796-2BA6-48C1-BC3F-9F2CA1C84395*
G04*
G04*
G04 #@! TF.FilePolarity,Positive*
G04*
G01*
G75*
%ADD32R,0.8000X0.8500*%
%ADD33O,1.5200X0.6100*%
%ADD34R,1.5200X0.6100*%
%ADD35C,1.5000*%
%ADD36R,1.5000X1.5000*%
%ADD37R,1.8000X0.6000*%
%ADD38O,1.8000X0.6000*%
%ADD39R,0.8500X0.8000*%
%ADD40R,8.6000X10.5000*%
%ADD41R,4.1500X1.1000*%
G04:AMPARAMS|DCode=42|XSize=2.5mm|YSize=2.3mm|CornerRadius=0.2875mm|HoleSize=0mm|Usage=FLASHONLY|Rotation=270.000|XOffset=0mm|YOffset=0mm|HoleType=Round|Shape=RoundedRectangle|*
%AMROUNDEDRECTD42*
21,1,2.5000,1.7250,0,0,270.0*
21,1,1.9250,2.3000,0,0,270.0*
1,1,0.5750,-0.8625,-0.9625*
1,1,0.5750,-0.8625,0.9625*
1,1,0.5750,0.8625,0.9625*
1,1,0.5750,0.8625,-0.9625*
%
%ADD42ROUNDEDRECTD42*%
%ADD43R,5.8000X3.1000*%
%ADD44C,1.0000*%
%ADD45C,0.5000*%
%ADD46R,1.5000X1.5000*%
%ADD47R,1.5240X1.5240*%
%ADD48C,1.5240*%
%ADD49R,1.5240X1.5240*%
%ADD50C,2.8000*%
%ADD51C,0.7500*%
%ADD52C,0.8000*%
G36*
X57276Y250000D02*
X57276Y250000D01*
X90000Y221433D01*
X90000Y196580D01*
Y189211D01*
X90000Y173655D01*
X90000Y163739D01*
X90000Y144854D01*
X90000Y130000D01*
X90000Y130000D01*
Y86177D01*
X58285Y56789D01*
X4078Y56789D01*
Y250000D01*
X57276Y250000D01*
D02*
G37*
G36*
X475922Y4078D02*
X152039D01*
Y130000D01*
X151884Y130780D01*
X151442Y131442D01*
X150780Y131884D01*
X150000Y132039D01*
X92039D01*
X92039Y144854D01*
X92039Y155440D01*
X213600D01*
X215427Y155680D01*
X217130Y156385D01*
X218593Y157508D01*
X254242Y193157D01*
X254505Y193500D01*
X287750D01*
Y208500D01*
X242250D01*
Y201134D01*
X210676Y169560D01*
X92039D01*
Y173655D01*
X92039Y189211D01*
Y196580D01*
X92039Y221433D01*
X92025Y221502D01*
X92034Y221571D01*
X91948Y221889D01*
X91884Y222213D01*
X91845Y222271D01*
X91827Y222339D01*
X91625Y222600D01*
X91442Y222875D01*
X91384Y222914D01*
X91341Y222969D01*
X58617Y251536D01*
X58392Y251665D01*
X58188Y251824D01*
X58117Y251843D01*
X58056Y251884D01*
X57988Y251898D01*
X57927Y251932D01*
X57670Y251966D01*
X57420Y252034D01*
X57348Y252025D01*
X57276Y252039D01*
X4078Y252039D01*
Y295922D01*
X475922D01*
Y4078D01*
D02*
G37*
G36*
X150000D02*
X4078D01*
Y54750D01*
X49400Y54750D01*
X59085D01*
X92039Y85286D01*
Y130000D01*
Y130000D01*
X150000D01*
Y4078D01*
D02*
G37*
%LPC*%
G36*
X51250Y245043D02*
Y236250D01*
X60043D01*
X59859Y237642D01*
X58840Y240103D01*
X57217Y242218D01*
X55103Y243840D01*
X52642Y244859D01*
X51250Y245043D01*
D02*
G37*
G36*
X48750D02*
X47358Y244859D01*
X44896Y243840D01*
X42782Y242218D01*
X41160Y240103D01*
X40140Y237642D01*
X39957Y236250D01*
X48750D01*
Y245043D01*
D02*
G37*
G36*
X60043Y233750D02*
X51250D01*
Y224957D01*
X52642Y225140D01*
X55103Y226160D01*
X57217Y227782D01*
X58840Y229896D01*
X59859Y232358D01*
X60043Y233750D01*
D02*
G37*
G36*
X48750D02*
X39957D01*
X40140Y232358D01*
X41160Y229896D01*
X42782Y227782D01*
X44896Y226160D01*
X47358Y225140D01*
X48750Y224957D01*
Y233750D01*
D02*
G37*
G36*
X45000Y196334D02*
Y182500D01*
X58834D01*
X58761Y183235D01*
X57818Y186345D01*
X56286Y189211D01*
X54224Y191724D01*
X51711Y193786D01*
X48845Y195318D01*
X45735Y196261D01*
X45000Y196334D01*
D02*
G37*
G36*
X40000D02*
X39265Y196261D01*
X36155Y195318D01*
X33289Y193786D01*
X30776Y191724D01*
X28714Y189211D01*
X27182Y186345D01*
X26239Y183235D01*
X26166Y182500D01*
X40000D01*
Y196334D01*
D02*
G37*
G36*
X58834Y177500D02*
X45000D01*
Y163666D01*
X45735Y163739D01*
X48845Y164682D01*
X51711Y166214D01*
X54224Y168276D01*
X56286Y170789D01*
X57818Y173655D01*
X58761Y176765D01*
X58834Y177500D01*
D02*
G37*
G36*
X40000D02*
X26166D01*
X26239Y176765D01*
X27182Y173655D01*
X28714Y170789D01*
X30776Y168276D01*
X33289Y166214D01*
X36155Y164682D01*
X39265Y163739D01*
X40000Y163666D01*
Y177500D01*
D02*
G37*
G36*
X42500Y146077D02*
X39364Y145769D01*
X36347Y144854D01*
X33568Y143368D01*
X31132Y141369D01*
X29132Y138932D01*
X27647Y136153D01*
X26732Y133137D01*
X26423Y130000D01*
X26732Y126864D01*
X27647Y123848D01*
X29132Y121068D01*
X31132Y118632D01*
X33568Y116632D01*
X36347Y115147D01*
X39364Y114232D01*
X42500Y113923D01*
X45637Y114232D01*
X48653Y115147D01*
X51432Y116632D01*
X53868Y118632D01*
X55868Y121068D01*
X57354Y123848D01*
X58268Y126864D01*
X58577Y130000D01*
X58268Y133137D01*
X57354Y136153D01*
X55868Y138932D01*
X53868Y141369D01*
X51432Y143368D01*
X48653Y144854D01*
X45637Y145769D01*
X42500Y146077D01*
D02*
G37*
G36*
X45000Y96334D02*
Y82500D01*
X58834D01*
X58761Y83235D01*
X57818Y86345D01*
X56286Y89212D01*
X54224Y91724D01*
X51711Y93786D01*
X48845Y95318D01*
X45735Y96262D01*
X45000Y96334D01*
D02*
G37*
G36*
X40000D02*
X39265Y96262D01*
X36155Y95318D01*
X33289Y93786D01*
X30776Y91724D01*
X28714Y89212D01*
X27182Y86345D01*
X26239Y83235D01*
X26166Y82500D01*
X40000D01*
Y96334D01*
D02*
G37*
G36*
X58834Y77500D02*
X45000D01*
Y63667D01*
X45735Y63739D01*
X48845Y64682D01*
X51711Y66215D01*
X54224Y68277D01*
X56286Y70789D01*
X57818Y73655D01*
X58761Y76766D01*
X58834Y77500D01*
D02*
G37*
G36*
X40000D02*
X26166D01*
X26239Y76766D01*
X27182Y73655D01*
X28714Y70789D01*
X30776Y68277D01*
X33289Y66215D01*
X36155Y64682D01*
X39265Y63739D01*
X40000Y63667D01*
Y77500D01*
D02*
G37*
G36*
X60120Y280120D02*
X51250D01*
Y271250D01*
X60120D01*
Y280120D01*
D02*
G37*
G36*
X48750D02*
X39880D01*
Y271250D01*
X48750D01*
Y280120D01*
D02*
G37*
G36*
X288250Y277000D02*
X266250D01*
Y270250D01*
X288250D01*
Y277000D01*
D02*
G37*
G36*
Y267750D02*
X266250D01*
Y261000D01*
X288250D01*
Y267750D01*
D02*
G37*
G36*
X263750Y277000D02*
X241750D01*
Y273588D01*
X196500D01*
X194744Y273239D01*
X193256Y272244D01*
X159256Y238244D01*
X158261Y236756D01*
X157912Y235000D01*
X158261Y233244D01*
X159256Y231756D01*
X160744Y230761D01*
X162500Y230412D01*
X241750D01*
Y227000D01*
X263750D01*
Y235000D01*
Y243000D01*
X241750D01*
Y239588D01*
X175210D01*
X174732Y240743D01*
X198400Y264412D01*
X241750D01*
Y261000D01*
X263750D01*
Y269000D01*
Y277000D01*
D02*
G37*
G36*
X60120Y268750D02*
X51250D01*
Y259880D01*
X60120D01*
Y268750D01*
D02*
G37*
G36*
X48750D02*
X39880D01*
Y259880D01*
X48750D01*
Y268750D01*
D02*
G37*
G36*
X321250Y250046D02*
X313875D01*
X312472Y249862D01*
X311164Y249320D01*
X310042Y248458D01*
X309180Y247336D01*
X308638Y246028D01*
X308454Y244625D01*
Y242060D01*
X288250D01*
Y243000D01*
X266250D01*
Y235000D01*
Y227000D01*
X288250D01*
Y227940D01*
X308454D01*
Y225375D01*
X308638Y223972D01*
X309180Y222664D01*
X310042Y221542D01*
X311164Y220680D01*
X312472Y220138D01*
X313875Y219954D01*
X321250D01*
Y235000D01*
Y250046D01*
D02*
G37*
G36*
X331125D02*
X323750D01*
Y236250D01*
X336546D01*
Y244625D01*
X336362Y246028D01*
X335820Y247336D01*
X334958Y248458D01*
X333836Y249320D01*
X332528Y249862D01*
X331125Y250046D01*
D02*
G37*
G36*
X336546Y233750D02*
X323750D01*
Y219954D01*
X331125D01*
X332528Y220138D01*
X333836Y220680D01*
X334958Y221542D01*
X335820Y222664D01*
X336362Y223972D01*
X336546Y225375D01*
Y233750D01*
D02*
G37*
G36*
X287750Y225500D02*
X242250D01*
Y210500D01*
X287750D01*
Y210940D01*
X293575D01*
X308904Y195611D01*
Y182375D01*
X309283Y180473D01*
X310360Y178861D01*
X311973Y177783D01*
X313875Y177405D01*
X327111D01*
X335008Y169508D01*
X336470Y168386D01*
X338173Y167680D01*
X340000Y167440D01*
X381498D01*
Y157000D01*
X443498D01*
Y192000D01*
X381498D01*
Y181561D01*
X342925D01*
X336096Y188390D01*
Y201625D01*
X335717Y203527D01*
X334640Y205140D01*
X333027Y206217D01*
X331125Y206596D01*
X317889D01*
X301493Y222993D01*
X300030Y224115D01*
X298327Y224820D01*
X296500Y225061D01*
X287750D01*
Y225500D01*
D02*
G37*
G36*
X319500Y137098D02*
X314750D01*
Y132800D01*
X324883D01*
X324859Y132986D01*
X324304Y134324D01*
X323423Y135473D01*
X322274Y136354D01*
X320936Y136909D01*
X319500Y137098D01*
D02*
G37*
G36*
X312250D02*
X307500D01*
X306064Y136909D01*
X304727Y136354D01*
X303577Y135473D01*
X302696Y134324D01*
X302142Y132986D01*
X302117Y132800D01*
X312250D01*
Y137098D01*
D02*
G37*
G36*
X324883Y130300D02*
X314750D01*
Y126003D01*
X319500D01*
X320936Y126192D01*
X322274Y126746D01*
X323423Y127627D01*
X324304Y128776D01*
X324859Y130114D01*
X324883Y130300D01*
D02*
G37*
G36*
X312250D02*
X302117D01*
X302142Y130114D01*
X302696Y128776D01*
X303577Y127627D01*
X304727Y126746D01*
X306064Y126192D01*
X307500Y126003D01*
X312250D01*
Y130300D01*
D02*
G37*
G36*
X443498Y293000D02*
X381498D01*
Y282561D01*
X320000D01*
X318173Y282320D01*
X316470Y281615D01*
X315008Y280493D01*
X293575Y259061D01*
X287750D01*
Y259500D01*
X242250D01*
Y244500D01*
X287750D01*
Y244940D01*
X296500D01*
X298327Y245180D01*
X300030Y245886D01*
X301493Y247008D01*
X322925Y268440D01*
X381498D01*
Y258000D01*
X432370D01*
X449304Y241066D01*
Y151789D01*
X422076Y124561D01*
X389101D01*
X387352Y125903D01*
X385011Y126873D01*
X382500Y127203D01*
X379989Y126873D01*
X377649Y125903D01*
X375639Y124361D01*
X374097Y122352D01*
X373128Y120012D01*
X372797Y117500D01*
X373128Y114989D01*
X374097Y112649D01*
X375639Y110639D01*
X377649Y109097D01*
X379989Y108128D01*
X382500Y107797D01*
X385011Y108128D01*
X387352Y109097D01*
X389101Y110440D01*
X425000D01*
X426828Y110680D01*
X428530Y111386D01*
X429993Y112508D01*
X461357Y143872D01*
X462479Y145334D01*
X463184Y147037D01*
X463424Y148864D01*
Y243991D01*
X463184Y245818D01*
X462479Y247521D01*
X461357Y248983D01*
X443498Y266842D01*
Y293000D01*
D02*
G37*
G36*
X218750Y123050D02*
X206250D01*
Y121638D01*
X191073D01*
X190820Y121807D01*
X188850Y122199D01*
X179750D01*
X177780Y121807D01*
X176109Y120691D01*
X174993Y119021D01*
X174601Y117050D01*
X174993Y115080D01*
X176109Y113409D01*
X177780Y112293D01*
X179750Y111901D01*
X188850D01*
X190820Y112293D01*
X191073Y112462D01*
X206250D01*
Y111050D01*
X207912D01*
Y60750D01*
X206250D01*
Y59338D01*
X191073D01*
X190820Y59507D01*
X188850Y59899D01*
X179750D01*
X177780Y59507D01*
X176109Y58391D01*
X174993Y56720D01*
X174601Y54750D01*
X174993Y52779D01*
X176109Y51109D01*
X177780Y49993D01*
X179750Y49601D01*
X188850D01*
X190820Y49993D01*
X191073Y50162D01*
X206250D01*
Y48750D01*
X218750D01*
Y60750D01*
X217088D01*
Y111050D01*
X218750D01*
Y123050D01*
D02*
G37*
G36*
X367620Y127620D02*
X358750D01*
Y118750D01*
X367620D01*
Y127620D01*
D02*
G37*
G36*
X356250D02*
X347380D01*
Y118750D01*
X356250D01*
Y127620D01*
D02*
G37*
G36*
X319500Y123948D02*
X307500D01*
X305549Y123560D01*
X303895Y122455D01*
X302790Y120801D01*
X302402Y118850D01*
X302790Y116899D01*
X303895Y115245D01*
X305549Y114140D01*
X307500Y113752D01*
X319500D01*
X321451Y114140D01*
X321633Y114262D01*
X328637D01*
X332028Y110871D01*
X331231Y109900D01*
X330499Y110389D01*
X328744Y110738D01*
X321633D01*
X321451Y110860D01*
X319500Y111248D01*
X307500D01*
X305549Y110860D01*
X303895Y109755D01*
X302790Y108101D01*
X302402Y106150D01*
X302790Y104199D01*
X303895Y102545D01*
X305549Y101440D01*
X307500Y101052D01*
X319500D01*
X321451Y101440D01*
X321633Y101562D01*
X326843D01*
X331037Y97368D01*
Y40011D01*
X331386Y38255D01*
X332381Y36767D01*
X339329Y29818D01*
X340818Y28824D01*
X342574Y28474D01*
X344407D01*
X344768Y28000D01*
X344148Y26750D01*
X338750D01*
Y24588D01*
X337172D01*
X337136Y24636D01*
X335778Y25678D01*
X334197Y26333D01*
X333750Y26392D01*
Y20000D01*
Y13609D01*
X334197Y13667D01*
X335778Y14322D01*
X337136Y15364D01*
X337172Y15412D01*
X338750D01*
Y13250D01*
X344000D01*
Y20000D01*
X346500D01*
Y13250D01*
X351750D01*
Y19878D01*
X352905Y20357D01*
X353750Y19511D01*
Y13750D01*
X365750D01*
Y15412D01*
X374250D01*
Y13750D01*
X386250D01*
Y19511D01*
X387595Y20857D01*
X388750Y20379D01*
Y13750D01*
X400750D01*
Y15412D01*
X404590D01*
X405441Y14759D01*
X406900Y14154D01*
X408467Y13948D01*
X410033Y14154D01*
X411493Y14759D01*
X412746Y15721D01*
X413708Y16974D01*
X414312Y18434D01*
X414518Y20000D01*
X414312Y21566D01*
X413708Y23026D01*
X412746Y24279D01*
X411493Y25241D01*
X410033Y25846D01*
X408467Y26052D01*
X406900Y25846D01*
X405441Y25241D01*
X404590Y24588D01*
X400750D01*
Y26250D01*
X394508D01*
X394030Y27405D01*
X395099Y28474D01*
X410545D01*
X412300Y28824D01*
X413789Y29818D01*
X422492Y38522D01*
X423487Y40010D01*
X423836Y41766D01*
Y43084D01*
X424311Y43436D01*
X425646Y42871D01*
X425745Y42120D01*
X426702Y39809D01*
X428225Y37825D01*
X430209Y36302D01*
X432520Y35345D01*
X435000Y35018D01*
X437480Y35345D01*
X439791Y36302D01*
X441776Y37825D01*
X443298Y39809D01*
X444256Y42120D01*
X444582Y44600D01*
X444256Y47080D01*
X443298Y49391D01*
X442247Y50762D01*
X442863Y52012D01*
X442964D01*
X444720Y52361D01*
X446208Y53356D01*
X453353Y60500D01*
X469500D01*
Y79500D01*
X450500D01*
Y70625D01*
X445655Y65780D01*
X444500Y66258D01*
Y79500D01*
X425500D01*
Y74588D01*
X405250D01*
X403494Y74239D01*
X402006Y73244D01*
X385984Y57223D01*
X385642Y56994D01*
X383006Y54358D01*
X382777Y54016D01*
X380011Y51250D01*
X374250D01*
Y49588D01*
X365750D01*
Y51250D01*
X364338D01*
Y89638D01*
X363989Y91393D01*
X362994Y92882D01*
X349651Y106225D01*
X350129Y107380D01*
X356250D01*
Y116250D01*
X347380D01*
Y110130D01*
X346225Y109651D01*
X333782Y122094D01*
X332293Y123089D01*
X330537Y123438D01*
X321633D01*
X321451Y123560D01*
X319500Y123948D01*
D02*
G37*
G36*
X367620Y116250D02*
X358750D01*
Y107380D01*
X367620D01*
Y116250D01*
D02*
G37*
G36*
X188850Y109948D02*
X185550D01*
Y105600D01*
X194283D01*
X194257Y105799D01*
X193698Y107149D01*
X192808Y108308D01*
X191649Y109198D01*
X190299Y109757D01*
X188850Y109948D01*
D02*
G37*
G36*
X183050D02*
X179750D01*
X178301Y109757D01*
X176951Y109198D01*
X175792Y108308D01*
X174902Y107149D01*
X174343Y105799D01*
X174317Y105600D01*
X183050D01*
Y109948D01*
D02*
G37*
G36*
X218750Y137550D02*
X206250D01*
Y125550D01*
X218750D01*
Y126962D01*
X233367D01*
X233549Y126840D01*
X235500Y126452D01*
X247500D01*
X249451Y126840D01*
X249633Y126962D01*
X255200D01*
X280412Y101750D01*
Y100521D01*
X280204Y100371D01*
X278505Y100673D01*
X278244Y101062D01*
X269912Y109394D01*
X268424Y110389D01*
X266668Y110738D01*
X249633D01*
X249451Y110860D01*
X247500Y111248D01*
X236154D01*
X235636Y112498D01*
X236891Y113752D01*
X247500D01*
X249451Y114140D01*
X251105Y115245D01*
X252210Y116899D01*
X252598Y118850D01*
X252210Y120801D01*
X251105Y122455D01*
X249451Y123560D01*
X247500Y123948D01*
X235500D01*
X233549Y123560D01*
X231895Y122455D01*
X230790Y120801D01*
X230747Y120586D01*
X224256Y114095D01*
X223261Y112606D01*
X222912Y110850D01*
Y39600D01*
X223261Y37844D01*
X224256Y36356D01*
X242600Y18011D01*
Y5500D01*
X261600D01*
Y22643D01*
X262850Y23161D01*
X268329Y17683D01*
X268245Y17480D01*
X267918Y15000D01*
X268245Y12520D01*
X269202Y10209D01*
X270725Y8224D01*
X272709Y6702D01*
X275020Y5744D01*
X277500Y5418D01*
X279980Y5744D01*
X282291Y6702D01*
X284276Y8224D01*
X285798Y10209D01*
X286756Y12520D01*
X287082Y15000D01*
X286756Y17480D01*
X285798Y19791D01*
X284276Y21775D01*
X282291Y23298D01*
X279980Y24255D01*
X277500Y24582D01*
X275020Y24255D01*
X274817Y24171D01*
X270088Y28900D01*
Y32537D01*
X271338Y33154D01*
X272709Y32102D01*
X275020Y31144D01*
X277500Y30818D01*
X279980Y31144D01*
X282291Y32102D01*
X284276Y33624D01*
X285798Y35609D01*
X286756Y37920D01*
X287082Y40400D01*
X286756Y42880D01*
X285798Y45191D01*
X284276Y47175D01*
X282291Y48698D01*
X282088Y48782D01*
Y53100D01*
X288244Y59256D01*
X289239Y60744D01*
X289588Y62500D01*
Y103650D01*
X289239Y105406D01*
X288244Y106895D01*
X260344Y134794D01*
X258856Y135789D01*
X257100Y136138D01*
X249633D01*
X249451Y136260D01*
X247500Y136648D01*
X235500D01*
X233549Y136260D01*
X233367Y136138D01*
X218750D01*
Y137550D01*
D02*
G37*
G36*
X194283Y103100D02*
X185550D01*
Y98752D01*
X188850D01*
X190299Y98943D01*
X191649Y99502D01*
X192808Y100392D01*
X193698Y101551D01*
X194257Y102901D01*
X194283Y103100D01*
D02*
G37*
G36*
X183050D02*
X174317D01*
X174343Y102901D01*
X174902Y101551D01*
X175792Y100392D01*
X176951Y99502D01*
X178301Y98943D01*
X179750Y98752D01*
X183050D01*
Y103100D01*
D02*
G37*
G36*
X188850Y97248D02*
X185550D01*
Y92900D01*
X194283D01*
X194257Y93099D01*
X193698Y94449D01*
X192808Y95609D01*
X191649Y96498D01*
X190299Y97057D01*
X188850Y97248D01*
D02*
G37*
G36*
X183050D02*
X179750D01*
X178301Y97057D01*
X176951Y96498D01*
X175792Y95609D01*
X174902Y94449D01*
X174343Y93099D01*
X174317Y92900D01*
X183050D01*
Y97248D01*
D02*
G37*
G36*
X194283Y90400D02*
X185550D01*
Y86052D01*
X188850D01*
X190299Y86243D01*
X191649Y86802D01*
X192808Y87692D01*
X193698Y88851D01*
X194257Y90201D01*
X194283Y90400D01*
D02*
G37*
G36*
X183050D02*
X174317D01*
X174343Y90201D01*
X174902Y88851D01*
X175792Y87692D01*
X176951Y86802D01*
X178301Y86243D01*
X179750Y86052D01*
X183050D01*
Y90400D01*
D02*
G37*
G36*
X194400Y84500D02*
X185550D01*
Y80200D01*
X194400D01*
Y84500D01*
D02*
G37*
G36*
X183050D02*
X174200D01*
Y80200D01*
X183050D01*
Y84500D01*
D02*
G37*
G36*
X194400Y77700D02*
X185550D01*
Y73400D01*
X194400D01*
Y77700D01*
D02*
G37*
G36*
X183050D02*
X174200D01*
Y73400D01*
X183050D01*
Y77700D01*
D02*
G37*
G36*
X305500Y76750D02*
X300250D01*
Y71250D01*
X305500D01*
Y76750D01*
D02*
G37*
G36*
X297750D02*
X292500D01*
Y71250D01*
X297750D01*
Y76750D01*
D02*
G37*
G36*
X299000Y70000D02*
D01*
Y68750D01*
X292500D01*
Y63250D01*
X293972D01*
X294006Y63154D01*
X294260Y62000D01*
X293323Y60778D01*
X292668Y59197D01*
X292609Y58750D01*
X305392D01*
X305333Y59197D01*
X304678Y60778D01*
X303740Y62000D01*
X303995Y63154D01*
X304028Y63250D01*
X305500D01*
Y68750D01*
X299000D01*
Y70000D01*
D02*
G37*
G36*
X324500Y98450D02*
X302500D01*
Y88450D01*
X308912D01*
Y76250D01*
X307500D01*
Y63750D01*
X308912D01*
Y53822D01*
X309261Y52066D01*
X310256Y50578D01*
X313427Y47406D01*
Y44383D01*
X312177Y44134D01*
X311635Y45443D01*
X310032Y47532D01*
X307943Y49135D01*
X307488Y49323D01*
Y53071D01*
X307139Y54827D01*
X306188Y56250D01*
X292609D01*
X292668Y55803D01*
X293323Y54222D01*
X294364Y52864D01*
X295722Y51822D01*
X297304Y51167D01*
X298312Y51034D01*
Y49323D01*
X297857Y49135D01*
X295768Y47532D01*
X294165Y45443D01*
X293158Y43010D01*
X292978Y41650D01*
X302900D01*
Y40400D01*
X304150D01*
Y30478D01*
X305511Y30657D01*
X307943Y31665D01*
X310032Y33268D01*
X311635Y35357D01*
X312177Y36666D01*
X313427Y36417D01*
Y32016D01*
X305583Y24171D01*
X305380Y24255D01*
X302900Y24582D01*
X300420Y24255D01*
X298109Y23298D01*
X296125Y21775D01*
X294602Y19791D01*
X293645Y17480D01*
X293318Y15000D01*
X293645Y12520D01*
X294602Y10209D01*
X296125Y8224D01*
X298109Y6702D01*
X300420Y5744D01*
X302900Y5418D01*
X305380Y5744D01*
X307691Y6702D01*
X309676Y8224D01*
X311198Y10209D01*
X312156Y12520D01*
X312482Y15000D01*
X312156Y17480D01*
X312072Y17683D01*
X321260Y26871D01*
X322254Y28359D01*
X322604Y30115D01*
Y49307D01*
X322254Y51062D01*
X321260Y52551D01*
X318088Y55722D01*
Y63750D01*
X319500D01*
Y76250D01*
X318088D01*
Y88450D01*
X324500D01*
Y98450D01*
D02*
G37*
G36*
X188850Y47648D02*
X185550D01*
Y43300D01*
X194283D01*
X194257Y43499D01*
X193698Y44849D01*
X192808Y46008D01*
X191649Y46898D01*
X190299Y47457D01*
X188850Y47648D01*
D02*
G37*
G36*
X183050D02*
X179750D01*
X178301Y47457D01*
X176951Y46898D01*
X175792Y46008D01*
X174902Y44849D01*
X174343Y43499D01*
X174317Y43300D01*
X183050D01*
Y47648D01*
D02*
G37*
G36*
X219250Y46750D02*
X213750D01*
Y41500D01*
X219250D01*
Y46750D01*
D02*
G37*
G36*
X211250D02*
X205750D01*
Y41500D01*
X211250D01*
Y46750D01*
D02*
G37*
G36*
X194283Y40800D02*
X185550D01*
Y36452D01*
X188850D01*
X190299Y36643D01*
X191649Y37202D01*
X192808Y38092D01*
X193698Y39251D01*
X194257Y40601D01*
X194283Y40800D01*
D02*
G37*
G36*
X183050D02*
X174317D01*
X174343Y40601D01*
X174902Y39251D01*
X175792Y38092D01*
X176951Y37202D01*
X178301Y36643D01*
X179750Y36452D01*
X183050D01*
Y40800D01*
D02*
G37*
G36*
X460000Y54182D02*
X457520Y53856D01*
X455209Y52898D01*
X453225Y51375D01*
X451702Y49391D01*
X450745Y47080D01*
X450418Y44600D01*
X450745Y42120D01*
X451702Y39809D01*
X453225Y37825D01*
X455209Y36302D01*
X457520Y35345D01*
X460000Y35018D01*
X462480Y35345D01*
X464791Y36302D01*
X466776Y37825D01*
X468298Y39809D01*
X469256Y42120D01*
X469582Y44600D01*
X469256Y47080D01*
X468298Y49391D01*
X466776Y51375D01*
X464791Y52898D01*
X462480Y53856D01*
X460000Y54182D01*
D02*
G37*
G36*
X211250Y39000D02*
X204761D01*
X199699Y33938D01*
X191987D01*
X191649Y34198D01*
X190299Y34757D01*
X188850Y34948D01*
X185550D01*
Y29350D01*
Y23752D01*
X188850D01*
X190299Y23943D01*
X191649Y24502D01*
X191988Y24762D01*
X201600D01*
X203355Y25111D01*
X204844Y26106D01*
X211250Y32512D01*
Y39000D01*
D02*
G37*
G36*
X219250D02*
X213750D01*
Y33750D01*
X219250D01*
Y39000D01*
D02*
G37*
G36*
X183050Y34948D02*
X179750D01*
X178301Y34757D01*
X176951Y34198D01*
X175792Y33308D01*
X174902Y32149D01*
X174343Y30799D01*
X174317Y30600D01*
X183050D01*
Y34948D01*
D02*
G37*
G36*
X301650Y39150D02*
X292978D01*
X293158Y37789D01*
X294165Y35357D01*
X295768Y33268D01*
X297857Y31665D01*
X300290Y30657D01*
X301650Y30478D01*
Y39150D01*
D02*
G37*
G36*
X183050Y28100D02*
X174317D01*
X174343Y27901D01*
X174902Y26551D01*
X175792Y25392D01*
X176951Y24502D01*
X178301Y23943D01*
X179750Y23752D01*
X183050D01*
Y28100D01*
D02*
G37*
G36*
X331250Y26392D02*
X330803Y26333D01*
X329222Y25678D01*
X327864Y24636D01*
X326822Y23278D01*
X326167Y21697D01*
X326109Y21250D01*
X331250D01*
Y26392D01*
D02*
G37*
G36*
X461250Y29122D02*
Y20450D01*
X469922D01*
X469743Y21811D01*
X468735Y24243D01*
X467132Y26332D01*
X465043Y27935D01*
X462611Y28943D01*
X461250Y29122D01*
D02*
G37*
G36*
X436250D02*
Y20450D01*
X444922D01*
X444743Y21811D01*
X443735Y24243D01*
X442132Y26332D01*
X440043Y27935D01*
X437611Y28943D01*
X436250Y29122D01*
D02*
G37*
G36*
X458750D02*
X457390Y28943D01*
X454957Y27935D01*
X452868Y26332D01*
X451265Y24243D01*
X450258Y21811D01*
X450078Y20450D01*
X458750D01*
Y29122D01*
D02*
G37*
G36*
X433750D02*
X432390Y28943D01*
X429957Y27935D01*
X427868Y26332D01*
X426265Y24243D01*
X425258Y21811D01*
X425078Y20450D01*
X433750D01*
Y29122D01*
D02*
G37*
G36*
X194400Y22200D02*
X185550D01*
Y17900D01*
X194400D01*
Y22200D01*
D02*
G37*
G36*
X183050D02*
X174200D01*
Y17900D01*
X183050D01*
Y22200D01*
D02*
G37*
G36*
X331250Y18750D02*
X326109D01*
X326167Y18303D01*
X326822Y16722D01*
X327864Y15364D01*
X329222Y14322D01*
X330803Y13667D01*
X331250Y13609D01*
Y18750D01*
D02*
G37*
G36*
X194400Y15400D02*
X185550D01*
Y11100D01*
X194400D01*
Y15400D01*
D02*
G37*
G36*
X183050D02*
X174200D01*
Y11100D01*
X183050D01*
Y15400D01*
D02*
G37*
G36*
X469922Y17950D02*
X461250D01*
Y9278D01*
X462611Y9457D01*
X465043Y10465D01*
X467132Y12068D01*
X468735Y14157D01*
X469743Y16589D01*
X469922Y17950D01*
D02*
G37*
G36*
X444922D02*
X436250D01*
Y9278D01*
X437611Y9457D01*
X440043Y10465D01*
X442132Y12068D01*
X443735Y14157D01*
X444743Y16589D01*
X444922Y17950D01*
D02*
G37*
G36*
X458750D02*
X450078D01*
X450258Y16589D01*
X451265Y14157D01*
X452868Y12068D01*
X454957Y10465D01*
X457390Y9457D01*
X458750Y9278D01*
Y17950D01*
D02*
G37*
G36*
X433750D02*
X425078D01*
X425258Y16589D01*
X426265Y14157D01*
X427868Y12068D01*
X429957Y10465D01*
X432390Y9457D01*
X433750Y9278D01*
Y17950D01*
D02*
G37*
%LPD*%
G36*
X425500Y60500D02*
X425673D01*
X426191Y59250D01*
X416004Y49063D01*
X415156Y47795D01*
X414315Y47719D01*
X413790Y47828D01*
X413708Y48026D01*
X412746Y49279D01*
X411493Y50241D01*
X410033Y50846D01*
X408467Y51052D01*
X406900Y50846D01*
X405441Y50241D01*
X404590Y49588D01*
X400750D01*
Y51250D01*
X394622D01*
X394143Y52405D01*
X407150Y65412D01*
X425500D01*
Y60500D01*
D02*
G37*
G36*
X355162Y87737D02*
Y51250D01*
X353750D01*
Y38750D01*
X365750D01*
Y40412D01*
X374250D01*
Y38750D01*
X386250D01*
Y44511D01*
X387595Y45857D01*
X388750Y45379D01*
Y38750D01*
X392318D01*
X392441Y37500D01*
X391443Y37301D01*
X389954Y36307D01*
X383006Y29358D01*
X382777Y29016D01*
X380011Y26250D01*
X374250D01*
Y24588D01*
X365750D01*
Y26250D01*
X359989D01*
X357224Y29014D01*
X356995Y29358D01*
X350046Y36307D01*
X349009Y37000D01*
X349388Y38250D01*
X351750D01*
Y43750D01*
X345250D01*
Y46250D01*
X351750D01*
Y51750D01*
X350279D01*
X350244Y51849D01*
X349990Y53000D01*
X350928Y54222D01*
X351583Y55803D01*
X351642Y56250D01*
X345250D01*
Y57500D01*
X344000D01*
Y63891D01*
X343553Y63833D01*
X341972Y63178D01*
X341463Y62787D01*
X340213Y63404D01*
Y99269D01*
X339864Y101025D01*
X339375Y101756D01*
X340346Y102553D01*
X355162Y87737D01*
D02*
G37*
%LPC*%
G36*
X346500Y63891D02*
Y58750D01*
X351642D01*
X351583Y59197D01*
X350928Y60778D01*
X349886Y62136D01*
X348528Y63178D01*
X346947Y63833D01*
X346500Y63891D01*
D02*
G37*
%LPD*%
G36*
X233549Y101440D02*
X235500Y101052D01*
X247500D01*
X249451Y101440D01*
X249633Y101562D01*
X264768D01*
X270412Y95918D01*
Y69401D01*
X263389Y62377D01*
X262500Y63257D01*
X262500Y64498D01*
Y68750D01*
X257250D01*
Y63250D01*
X261250D01*
X262494Y63250D01*
X263373Y62362D01*
X262256Y61245D01*
X261261Y59756D01*
X260912Y58000D01*
Y46575D01*
X259662Y46150D01*
X258876Y47175D01*
X256891Y48698D01*
X254580Y49655D01*
X252100Y49982D01*
X249620Y49655D01*
X249417Y49571D01*
X246088Y52901D01*
Y53623D01*
X246741Y54474D01*
X247345Y55934D01*
X247551Y57500D01*
X247345Y59066D01*
X246741Y60526D01*
X246088Y61377D01*
Y63750D01*
X247500D01*
Y76250D01*
X246088D01*
Y88352D01*
X247500D01*
X249451Y88740D01*
X251105Y89845D01*
X252210Y91499D01*
X252598Y93450D01*
X252210Y95401D01*
X251105Y97055D01*
X249451Y98160D01*
X247500Y98548D01*
X235500D01*
X233549Y98160D01*
X233191Y97921D01*
X232088Y98510D01*
Y101090D01*
X233191Y101680D01*
X233549Y101440D01*
D02*
G37*
G36*
Y88740D02*
X235500Y88352D01*
X236912D01*
Y76250D01*
X235500D01*
Y63750D01*
X236912D01*
Y61377D01*
X236259Y60526D01*
X235654Y59066D01*
X235448Y57500D01*
X235654Y55934D01*
X236259Y54474D01*
X236912Y53623D01*
Y51000D01*
X237261Y49244D01*
X238256Y47756D01*
X242929Y43083D01*
X242845Y42880D01*
X242518Y40400D01*
X242845Y37920D01*
X243802Y35609D01*
X245325Y33624D01*
X247309Y32102D01*
X249620Y31144D01*
X252100Y30818D01*
X254580Y31144D01*
X256891Y32102D01*
X258876Y33624D01*
X259662Y34649D01*
X260912Y34225D01*
Y27000D01*
X261161Y25750D01*
X260470Y24659D01*
X260255Y24500D01*
X249089D01*
X232088Y41501D01*
Y88390D01*
X233191Y88980D01*
X233549Y88740D01*
D02*
G37*
%LPC*%
G36*
X257250Y89626D02*
Y84485D01*
X262392D01*
X262333Y84932D01*
X261678Y86513D01*
X260636Y87871D01*
X259278Y88912D01*
X257697Y89567D01*
X257250Y89626D01*
D02*
G37*
G36*
X254750D02*
X254303Y89567D01*
X252722Y88912D01*
X251364Y87871D01*
X250322Y86513D01*
X249667Y84932D01*
X249609Y84485D01*
X254750D01*
Y89626D01*
D02*
G37*
G36*
X262392Y81985D02*
X249609D01*
X249667Y81538D01*
X250322Y79957D01*
X251364Y78599D01*
X251412Y78562D01*
Y76750D01*
X249500D01*
Y71250D01*
X256000D01*
X262500D01*
Y76750D01*
X260588D01*
Y78562D01*
X260636Y78599D01*
X261678Y79957D01*
X262333Y81538D01*
X262392Y81985D01*
D02*
G37*
G36*
X254750Y68750D02*
X249500D01*
Y63250D01*
X254750D01*
Y68750D01*
D02*
G37*
G36*
X130250Y122648D02*
X126950D01*
Y118300D01*
X135683D01*
X135657Y118499D01*
X135098Y119849D01*
X134208Y121009D01*
X133049Y121898D01*
X131699Y122457D01*
X130250Y122648D01*
D02*
G37*
G36*
X124450D02*
X121150D01*
X119701Y122457D01*
X118351Y121898D01*
X117192Y121009D01*
X116302Y119849D01*
X115743Y118499D01*
X115717Y118300D01*
X124450D01*
Y122648D01*
D02*
G37*
G36*
X135683Y115800D02*
X126950D01*
Y111452D01*
X130250D01*
X131699Y111643D01*
X133049Y112202D01*
X134208Y113092D01*
X135098Y114251D01*
X135657Y115601D01*
X135683Y115800D01*
D02*
G37*
G36*
X124450D02*
X115717D01*
X115743Y115601D01*
X116302Y114251D01*
X117192Y113092D01*
X118351Y112202D01*
X119701Y111643D01*
X121150Y111452D01*
X124450D01*
Y115800D01*
D02*
G37*
G36*
X130250Y109948D02*
X126950D01*
Y105600D01*
X135683D01*
X135657Y105799D01*
X135098Y107149D01*
X134208Y108308D01*
X133049Y109198D01*
X131699Y109757D01*
X130250Y109948D01*
D02*
G37*
G36*
X124450D02*
X121150D01*
X119701Y109757D01*
X118351Y109198D01*
X117192Y108308D01*
X116302Y107149D01*
X115743Y105799D01*
X115717Y105600D01*
X124450D01*
Y109948D01*
D02*
G37*
G36*
X135683Y103100D02*
X126950D01*
Y98752D01*
X130250D01*
X131699Y98943D01*
X133049Y99502D01*
X134208Y100392D01*
X135098Y101551D01*
X135657Y102901D01*
X135683Y103100D01*
D02*
G37*
G36*
X124450D02*
X115717D01*
X115743Y102901D01*
X116302Y101551D01*
X117192Y100392D01*
X118351Y99502D01*
X119701Y98943D01*
X121150Y98752D01*
X124450D01*
Y103100D01*
D02*
G37*
G36*
X130250Y97248D02*
X126950D01*
Y92900D01*
X135683D01*
X135657Y93099D01*
X135098Y94449D01*
X134208Y95609D01*
X133049Y96498D01*
X131699Y97057D01*
X130250Y97248D01*
D02*
G37*
G36*
X124450D02*
X121150D01*
X119701Y97057D01*
X118351Y96498D01*
X117192Y95609D01*
X116302Y94449D01*
X115743Y93099D01*
X115717Y92900D01*
X124450D01*
Y97248D01*
D02*
G37*
G36*
X135683Y90400D02*
X126950D01*
Y86052D01*
X130250D01*
X131699Y86243D01*
X133049Y86802D01*
X134208Y87692D01*
X135098Y88851D01*
X135657Y90201D01*
X135683Y90400D01*
D02*
G37*
G36*
X124450D02*
X115717D01*
X115743Y90201D01*
X116302Y88851D01*
X117192Y87692D01*
X118351Y86802D01*
X119701Y86243D01*
X121150Y86052D01*
X124450D01*
Y90400D01*
D02*
G37*
G36*
X130250Y84548D02*
X126950D01*
Y80200D01*
X135683D01*
X135657Y80399D01*
X135098Y81749D01*
X134208Y82908D01*
X133049Y83798D01*
X131699Y84357D01*
X130250Y84548D01*
D02*
G37*
G36*
X124450D02*
X121150D01*
X119701Y84357D01*
X118351Y83798D01*
X117192Y82908D01*
X116302Y81749D01*
X115743Y80399D01*
X115717Y80200D01*
X124450D01*
Y84548D01*
D02*
G37*
G36*
X135683Y77700D02*
X126950D01*
Y73352D01*
X130250D01*
X131699Y73543D01*
X133049Y74102D01*
X134208Y74992D01*
X135098Y76151D01*
X135657Y77501D01*
X135683Y77700D01*
D02*
G37*
G36*
X124450D02*
X115717D01*
X115743Y77501D01*
X116302Y76151D01*
X117192Y74992D01*
X118351Y74102D01*
X119701Y73543D01*
X121150Y73352D01*
X124450D01*
Y77700D01*
D02*
G37*
G36*
X130250Y60348D02*
X126950D01*
Y56000D01*
X135683D01*
X135657Y56199D01*
X135098Y57549D01*
X134208Y58708D01*
X133049Y59598D01*
X131699Y60157D01*
X130250Y60348D01*
D02*
G37*
G36*
X124450D02*
X121150D01*
X119701Y60157D01*
X118351Y59598D01*
X117192Y58708D01*
X116302Y57549D01*
X115743Y56199D01*
X115717Y56000D01*
X124450D01*
Y60348D01*
D02*
G37*
G36*
X135683Y53500D02*
X126950D01*
Y49152D01*
X130250D01*
X131699Y49343D01*
X133049Y49902D01*
X134208Y50792D01*
X135098Y51951D01*
X135657Y53301D01*
X135683Y53500D01*
D02*
G37*
G36*
X124450D02*
X115717D01*
X115743Y53301D01*
X116302Y51951D01*
X117192Y50792D01*
X118351Y49902D01*
X119701Y49343D01*
X121150Y49152D01*
X124450D01*
Y53500D01*
D02*
G37*
G36*
X130250Y47648D02*
X126950D01*
Y43300D01*
X135683D01*
X135657Y43499D01*
X135098Y44849D01*
X134208Y46008D01*
X133049Y46898D01*
X131699Y47457D01*
X130250Y47648D01*
D02*
G37*
G36*
X124450D02*
X121150D01*
X119701Y47457D01*
X118351Y46898D01*
X117192Y46008D01*
X116302Y44849D01*
X115743Y43499D01*
X115717Y43300D01*
X124450D01*
Y47648D01*
D02*
G37*
G36*
X135683Y40800D02*
X126950D01*
Y36452D01*
X130250D01*
X131699Y36643D01*
X133049Y37202D01*
X134208Y38092D01*
X135098Y39251D01*
X135657Y40601D01*
X135683Y40800D01*
D02*
G37*
G36*
X124450D02*
X115717D01*
X115743Y40601D01*
X116302Y39251D01*
X117192Y38092D01*
X118351Y37202D01*
X119701Y36643D01*
X121150Y36452D01*
X124450D01*
Y40800D01*
D02*
G37*
G36*
X45000Y46333D02*
Y32500D01*
X58834D01*
X58761Y33234D01*
X57818Y36345D01*
X56286Y39211D01*
X54224Y41723D01*
X51711Y43785D01*
X48845Y45318D01*
X45735Y46261D01*
X45000Y46333D01*
D02*
G37*
G36*
X40000D02*
X39265Y46261D01*
X36155Y45318D01*
X33289Y43785D01*
X30776Y41723D01*
X28714Y39211D01*
X27182Y36345D01*
X26239Y33234D01*
X26166Y32500D01*
X40000D01*
Y46333D01*
D02*
G37*
G36*
X130250Y34948D02*
X126950D01*
Y30600D01*
X135683D01*
X135657Y30799D01*
X135098Y32149D01*
X134208Y33308D01*
X133049Y34198D01*
X131699Y34757D01*
X130250Y34948D01*
D02*
G37*
G36*
X124450D02*
X121150D01*
X119701Y34757D01*
X118351Y34198D01*
X117192Y33308D01*
X116302Y32149D01*
X115743Y30799D01*
X115717Y30600D01*
X124450D01*
Y34948D01*
D02*
G37*
G36*
X135683Y28100D02*
X126950D01*
Y23752D01*
X130250D01*
X131699Y23943D01*
X133049Y24502D01*
X134208Y25392D01*
X135098Y26551D01*
X135657Y27901D01*
X135683Y28100D01*
D02*
G37*
G36*
X124450D02*
X115717D01*
X115743Y27901D01*
X116302Y26551D01*
X117192Y25392D01*
X118351Y24502D01*
X119701Y23943D01*
X121150Y23752D01*
X124450D01*
Y28100D01*
D02*
G37*
G36*
X130250Y22248D02*
X126950D01*
Y17900D01*
X135683D01*
X135657Y18099D01*
X135098Y19449D01*
X134208Y20608D01*
X133049Y21498D01*
X131699Y22057D01*
X130250Y22248D01*
D02*
G37*
G36*
X124450D02*
X121150D01*
X119701Y22057D01*
X118351Y21498D01*
X117192Y20608D01*
X116302Y19449D01*
X115743Y18099D01*
X115717Y17900D01*
X124450D01*
Y22248D01*
D02*
G37*
G36*
X58834Y27500D02*
X45000D01*
Y13666D01*
X45735Y13738D01*
X48845Y14682D01*
X51711Y16214D01*
X54224Y18276D01*
X56286Y20789D01*
X57818Y23655D01*
X58761Y26765D01*
X58834Y27500D01*
D02*
G37*
G36*
X40000D02*
X26166D01*
X26239Y26765D01*
X27182Y23655D01*
X28714Y20789D01*
X30776Y18276D01*
X33289Y16214D01*
X36155Y14682D01*
X39265Y13738D01*
X40000Y13666D01*
Y27500D01*
D02*
G37*
G36*
X135683Y15400D02*
X126950D01*
Y11052D01*
X130250D01*
X131699Y11243D01*
X133049Y11802D01*
X134208Y12692D01*
X135098Y13851D01*
X135657Y15201D01*
X135683Y15400D01*
D02*
G37*
G36*
X124450D02*
X115717D01*
X115743Y15201D01*
X116302Y13851D01*
X117192Y12692D01*
X118351Y11802D01*
X119701Y11243D01*
X121150Y11052D01*
X124450D01*
Y15400D01*
D02*
G37*
%LPD*%
D32*
X359750Y20000D02*
D03*
X345250D02*
D03*
Y45000D02*
D03*
X359750D02*
D03*
X299000Y70000D02*
D03*
X313500D02*
D03*
X380250Y20000D02*
D03*
X394750D02*
D03*
X380250Y45000D02*
D03*
X394750D02*
D03*
X241500Y70000D02*
D03*
X256000D02*
D03*
D33*
X125700Y54750D02*
D03*
Y42050D02*
D03*
Y29350D02*
D03*
Y16650D02*
D03*
X184300Y54750D02*
D03*
Y42050D02*
D03*
Y29350D02*
D03*
X125700Y117050D02*
D03*
Y104350D02*
D03*
Y91650D02*
D03*
Y78950D02*
D03*
X184300Y117050D02*
D03*
Y104350D02*
D03*
Y91650D02*
D03*
D34*
Y16650D02*
D03*
Y78950D02*
D03*
D35*
X277500Y15000D02*
D03*
Y40400D02*
D03*
X252100D02*
D03*
X302900Y15000D02*
D03*
Y40400D02*
D03*
X435000Y44600D02*
D03*
Y19200D02*
D03*
X460000D02*
D03*
Y44600D02*
D03*
D36*
X252100Y15000D02*
D03*
D37*
X313500Y93450D02*
D03*
D38*
Y106150D02*
D03*
Y118850D02*
D03*
Y131550D02*
D03*
X241500Y93450D02*
D03*
Y106150D02*
D03*
Y118850D02*
D03*
Y131550D02*
D03*
D39*
X212500Y40250D02*
D03*
Y54750D02*
D03*
Y117050D02*
D03*
Y131550D02*
D03*
D40*
X162500Y235000D02*
D03*
D41*
X265000Y252000D02*
D03*
Y269000D02*
D03*
Y201000D02*
D03*
Y235000D02*
D03*
Y218000D02*
D03*
D42*
X322500Y192000D02*
D03*
Y235000D02*
D03*
D43*
X412498Y275500D02*
D03*
Y174500D02*
D03*
D44*
X382500Y117500D02*
X425000D01*
X381807D02*
X382500D01*
X425000D02*
X456364Y148864D01*
Y243991D01*
X412498Y275500D02*
X425998D01*
X320000D02*
X412498D01*
X436498Y263857D02*
Y265000D01*
X425998Y275500D02*
X436498Y265000D01*
Y263857D02*
X456364Y243991D01*
X265000Y252000D02*
X296500D01*
X320000Y275500D01*
X340000Y174500D02*
X412498D01*
X322500Y192000D02*
X340000Y174500D01*
X296500Y218000D02*
X322500Y192000D01*
X265000Y218000D02*
X296500D01*
X265000Y235000D02*
X322500D01*
X42500Y180000D02*
X60000Y162500D01*
X213600D01*
X249250Y200500D02*
X249750Y201000D01*
X213600Y162500D02*
X249250Y198150D01*
X249750Y201000D02*
X265000D01*
X249250Y198150D02*
Y200500D01*
D45*
X196500Y269000D02*
X265000D01*
X162500Y235000D02*
X196500Y269000D01*
X241500Y57500D02*
Y70000D01*
Y51000D02*
Y57500D01*
X227500Y39600D02*
Y110850D01*
Y39600D02*
X252100Y15000D01*
X275000Y67500D02*
Y97818D01*
X265500Y27000D02*
Y58000D01*
X275000Y67500D01*
X256000Y70000D02*
Y83235D01*
X299000Y57500D02*
Y70000D01*
Y56971D02*
Y57500D01*
X212500Y131550D02*
X257100D01*
X285000Y62500D02*
Y103650D01*
X257100Y131550D02*
X285000Y103650D01*
X266668Y106150D02*
X275000Y97818D01*
X241500Y106150D02*
X266668D01*
X277500Y55000D02*
X285000Y62500D01*
X277500Y40400D02*
Y55000D01*
X265500Y27000D02*
X277500Y15000D01*
X332500Y20000D02*
X332500Y20000D01*
X345250D01*
Y45000D02*
Y57500D01*
X162500Y235000D02*
X265000D01*
X394750Y20000D02*
X408467D01*
X394750Y45000D02*
X408467D01*
X386250Y26114D02*
X393199Y33063D01*
X410545D02*
X419248Y41766D01*
X393199Y33063D02*
X410545D01*
X430030Y56600D02*
X442964D01*
X419248Y45819D02*
X430030Y56600D01*
X419248Y41766D02*
Y45819D01*
X353750Y26000D02*
Y26114D01*
X359750Y20000D02*
Y20250D01*
X358000Y21750D02*
X358250D01*
X346802Y33063D02*
X353750Y26114D01*
X342574Y33063D02*
X346802D01*
X358250Y21750D02*
X359750Y20250D01*
X353750Y26000D02*
X358000Y21750D01*
X335625Y40011D02*
X342574Y33063D01*
X380250Y20250D02*
X381750Y21750D01*
X382000D01*
X386250Y26000D01*
X380250Y20000D02*
Y20250D01*
X386250Y26000D02*
Y26114D01*
Y51114D02*
X388886Y53750D01*
X389000D01*
X405250Y70000D02*
X435000D01*
X380250Y45000D02*
X386250Y51000D01*
Y51114D01*
X389000Y53750D02*
X405250Y70000D01*
X442964Y56600D02*
X456364Y70000D01*
X460000D01*
X434600Y45000D02*
X435000Y44600D01*
X328744Y106150D02*
X335625Y99269D01*
Y40011D02*
Y99269D01*
X313500Y106150D02*
X328744D01*
X330537Y118850D02*
X359750Y89638D01*
Y45000D02*
Y89638D01*
X313500Y118850D02*
X330537D01*
X359750Y45000D02*
X380250D01*
X380250Y20000D02*
X380250Y20000D01*
X359750Y20000D02*
X380250D01*
X318015Y30115D02*
Y49307D01*
X302900Y15000D02*
X318015Y30115D01*
X313500Y53822D02*
Y93450D01*
Y53822D02*
X318015Y49307D01*
X227500Y110850D02*
X235173Y118524D01*
X241173D01*
X241500Y118850D01*
Y51000D02*
X252100Y40400D01*
X241500Y70000D02*
Y93450D01*
X302900Y40400D02*
Y53071D01*
X299000Y56971D02*
X302900Y53071D01*
X184300Y29350D02*
X201600D01*
X212500Y40250D01*
Y54750D02*
Y117050D01*
X184300Y54750D02*
X212500D01*
X184300Y117050D02*
X212500D01*
D46*
X435000Y70000D02*
D03*
X460000D02*
D03*
D47*
X357500Y117500D02*
D03*
D48*
X382500D02*
D03*
X50000Y235000D02*
D03*
D49*
Y270000D02*
D03*
D50*
X42500Y180000D02*
D03*
Y130000D02*
D03*
Y80000D02*
D03*
Y30000D02*
D03*
D51*
X406900Y56971D02*
D03*
X405000Y145000D02*
D03*
X385000D02*
D03*
X365000D02*
D03*
X345000D02*
D03*
X325000D02*
D03*
X305000D02*
D03*
X285000D02*
D03*
X265000D02*
D03*
X245000D02*
D03*
X225000D02*
D03*
X150000Y275000D02*
D03*
Y235000D02*
D03*
Y255000D02*
D03*
Y215000D02*
D03*
Y192500D02*
D03*
X180000Y275000D02*
D03*
Y235000D02*
D03*
Y255000D02*
D03*
Y215000D02*
D03*
Y192500D02*
D03*
X165000Y16650D02*
D03*
Y29358D02*
D03*
Y42050D02*
D03*
Y54750D02*
D03*
Y78950D02*
D03*
Y91650D02*
D03*
Y104350D02*
D03*
X205000Y145000D02*
D03*
X185000D02*
D03*
X165000D02*
D03*
X145000D02*
D03*
X125000D02*
D03*
X105000D02*
D03*
X165000Y117050D02*
D03*
D52*
X241500Y57500D02*
D03*
X256000Y83235D02*
D03*
X332500Y20000D02*
D03*
X345250Y57500D02*
D03*
X408467Y20000D02*
D03*
Y45000D02*
D03*
X299000Y57500D02*
D03*
M02*
