G04*
G04 #@! TF.GenerationSoftware,Altium Limited,Altium Designer,21.8.1 (53)*
G04*
G04 Layer_Color=128*
%FSLAX44Y44*%
%MOMM*%
G71*
G04*
G04 #@! TF.SameCoordinates,89A26796-2BA6-48C1-BC3F-9F2CA1C84395*
G04*
G04*
G04 #@! TF.FilePolarity,Positive*
G04*
G01*
G75*
%ADD55C,0.0508*%
D55*
X430500Y44600D02*
X439500D01*
X435000Y40100D02*
Y49100D01*
X430500Y70000D02*
X439500D01*
X435000Y65500D02*
Y74500D01*
X430500Y19200D02*
X439500D01*
X435000Y14700D02*
Y23700D01*
X353750Y117500D02*
X361250D01*
X357500Y113750D02*
Y121250D01*
X378750Y117500D02*
X386250D01*
X382500Y113750D02*
Y121250D01*
X455500Y70000D02*
X464500D01*
X460000Y65500D02*
Y74500D01*
X455500Y19200D02*
X464500D01*
X460000Y14700D02*
Y23700D01*
X455500Y44600D02*
X464500D01*
X460000Y40100D02*
Y49100D01*
X46250Y270000D02*
X53750D01*
X50000Y266250D02*
Y273750D01*
X46250Y235000D02*
X53750D01*
X50000Y231250D02*
Y238750D01*
X35000Y180000D02*
X50000D01*
X42500Y172500D02*
Y187500D01*
X35000Y130000D02*
X50000D01*
X42500Y122500D02*
Y137500D01*
X35000Y80000D02*
X50000D01*
X42500Y72500D02*
Y87500D01*
X35000Y30000D02*
X50000D01*
X42500Y22500D02*
Y37500D01*
X404900Y56971D02*
X408900D01*
X406900Y54971D02*
Y58971D01*
X403000Y145000D02*
X407000D01*
X405000Y143000D02*
Y147000D01*
X383000Y145000D02*
X387000D01*
X385000Y143000D02*
Y147000D01*
X363000Y145000D02*
X367000D01*
X365000Y143000D02*
Y147000D01*
X343000Y145000D02*
X347000D01*
X345000Y143000D02*
Y147000D01*
X323000Y145000D02*
X327000D01*
X325000Y143000D02*
Y147000D01*
X303000Y145000D02*
X307000D01*
X305000Y143000D02*
Y147000D01*
X283000Y145000D02*
X287000D01*
X285000Y143000D02*
Y147000D01*
X263000Y145000D02*
X267000D01*
X265000Y143000D02*
Y147000D01*
X243000Y145000D02*
X247000D01*
X245000Y143000D02*
Y147000D01*
X223000Y145000D02*
X227000D01*
X225000Y143000D02*
Y147000D01*
X148000Y275000D02*
X152000D01*
X150000Y273000D02*
Y277000D01*
X148000Y235000D02*
X152000D01*
X150000Y233000D02*
Y237000D01*
X148000Y255000D02*
X152000D01*
X150000Y253000D02*
Y257000D01*
X148000Y215000D02*
X152000D01*
X150000Y213000D02*
Y217000D01*
X148000Y192500D02*
X152000D01*
X150000Y190500D02*
Y194500D01*
X178000Y275000D02*
X182000D01*
X180000Y273000D02*
Y277000D01*
X178000Y235000D02*
X182000D01*
X180000Y233000D02*
Y237000D01*
X178000Y255000D02*
X182000D01*
X180000Y253000D02*
Y257000D01*
X178000Y215000D02*
X182000D01*
X180000Y213000D02*
Y217000D01*
X178000Y192500D02*
X182000D01*
X180000Y190500D02*
Y194500D01*
X163000Y16650D02*
X167000D01*
X165000Y14650D02*
Y18650D01*
X163000Y29358D02*
X167000D01*
X165000Y27358D02*
Y31358D01*
X163000Y42050D02*
X167000D01*
X165000Y40050D02*
Y44050D01*
X163000Y54750D02*
X167000D01*
X165000Y52750D02*
Y56750D01*
X163000Y78950D02*
X167000D01*
X165000Y76950D02*
Y80950D01*
X163000Y91650D02*
X167000D01*
X165000Y89650D02*
Y93650D01*
X163000Y104350D02*
X167000D01*
X165000Y102350D02*
Y106350D01*
X203000Y145000D02*
X207000D01*
X205000Y143000D02*
Y147000D01*
X183000Y145000D02*
X187000D01*
X185000Y143000D02*
Y147000D01*
X163000Y145000D02*
X167000D01*
X165000Y143000D02*
Y147000D01*
X143000Y145000D02*
X147000D01*
X145000Y143000D02*
Y147000D01*
X123000Y145000D02*
X127000D01*
X125000Y143000D02*
Y147000D01*
X103000Y145000D02*
X107000D01*
X105000Y143000D02*
Y147000D01*
X239500Y57500D02*
X243500D01*
X241500Y55500D02*
Y59500D01*
X254000Y83235D02*
X258000D01*
X256000Y81235D02*
Y85235D01*
X330500Y20000D02*
X334500D01*
X332500Y18000D02*
Y22000D01*
X343250Y57500D02*
X347250D01*
X345250Y55500D02*
Y59500D01*
X406467Y20000D02*
X410467D01*
X408467Y18000D02*
Y22000D01*
X406467Y45000D02*
X410467D01*
X408467Y43000D02*
Y47000D01*
X297000Y57500D02*
X301000D01*
X299000Y55500D02*
Y59500D01*
X163000Y117050D02*
X167000D01*
X165000Y115050D02*
Y119050D01*
M02*
