G04*
G04 #@! TF.GenerationSoftware,Altium Limited,Altium Designer,21.8.1 (53)*
G04*
G04 Layer_Color=2752767*
%FSLAX44Y44*%
%MOMM*%
G71*
G04*
G04 #@! TF.SameCoordinates,89A26796-2BA6-48C1-BC3F-9F2CA1C84395*
G04*
G04*
G04 #@! TF.FilePolarity,Positive*
G04*
G01*
G75*
%ADD55C,0.0508*%
%ADD56C,0.0677*%
D55*
X432968Y42568D02*
Y46632D01*
X437032D01*
Y42568D01*
X432968D01*
Y67968D02*
Y72032D01*
X437032D01*
Y67968D01*
X432968D01*
Y17168D02*
Y21232D01*
X437032D01*
Y17168D01*
X432968D01*
X457968Y67968D02*
Y72032D01*
X462032D01*
Y67968D01*
X457968D01*
Y17168D02*
Y21232D01*
X462032D01*
Y17168D01*
X457968D01*
Y42568D02*
Y46632D01*
X462032D01*
Y42568D01*
X457968D01*
X42500Y177968D02*
X40468Y182032D01*
X44532D01*
X42500Y177968D01*
Y127968D02*
X40468Y132032D01*
X44532D01*
X42500Y127968D01*
Y77968D02*
X40468Y82032D01*
X44532D01*
X42500Y77968D01*
Y27968D02*
X40468Y32032D01*
X44532D01*
X42500Y27968D01*
X406900Y54939D02*
X407916Y55955D01*
X408932D01*
X407916Y56971D01*
X408932Y57987D01*
X407916D01*
X406900Y59003D01*
X405884Y57987D01*
X404868D01*
X405884Y56971D01*
X404868Y55955D01*
X405884D01*
X406900Y54939D01*
X405000Y142968D02*
X406016Y143984D01*
X407032D01*
X406016Y145000D01*
X407032Y146016D01*
X406016D01*
X405000Y147032D01*
X403984Y146016D01*
X402968D01*
X403984Y145000D01*
X402968Y143984D01*
X403984D01*
X405000Y142968D01*
X385000D02*
X386016Y143984D01*
X387032D01*
X386016Y145000D01*
X387032Y146016D01*
X386016D01*
X385000Y147032D01*
X383984Y146016D01*
X382968D01*
X383984Y145000D01*
X382968Y143984D01*
X383984D01*
X385000Y142968D01*
X365000D02*
X366016Y143984D01*
X367032D01*
X366016Y145000D01*
X367032Y146016D01*
X366016D01*
X365000Y147032D01*
X363984Y146016D01*
X362968D01*
X363984Y145000D01*
X362968Y143984D01*
X363984D01*
X365000Y142968D01*
X345000D02*
X346016Y143984D01*
X347032D01*
X346016Y145000D01*
X347032Y146016D01*
X346016D01*
X345000Y147032D01*
X343984Y146016D01*
X342968D01*
X343984Y145000D01*
X342968Y143984D01*
X343984D01*
X345000Y142968D01*
X325000D02*
X326016Y143984D01*
X327032D01*
X326016Y145000D01*
X327032Y146016D01*
X326016D01*
X325000Y147032D01*
X323984Y146016D01*
X322968D01*
X323984Y145000D01*
X322968Y143984D01*
X323984D01*
X325000Y142968D01*
X305000D02*
X306016Y143984D01*
X307032D01*
X306016Y145000D01*
X307032Y146016D01*
X306016D01*
X305000Y147032D01*
X303984Y146016D01*
X302968D01*
X303984Y145000D01*
X302968Y143984D01*
X303984D01*
X305000Y142968D01*
X285000D02*
X286016Y143984D01*
X287032D01*
X286016Y145000D01*
X287032Y146016D01*
X286016D01*
X285000Y147032D01*
X283984Y146016D01*
X282968D01*
X283984Y145000D01*
X282968Y143984D01*
X283984D01*
X285000Y142968D01*
X265000D02*
X266016Y143984D01*
X267032D01*
X266016Y145000D01*
X267032Y146016D01*
X266016D01*
X265000Y147032D01*
X263984Y146016D01*
X262968D01*
X263984Y145000D01*
X262968Y143984D01*
X263984D01*
X265000Y142968D01*
X245000D02*
X246016Y143984D01*
X247032D01*
X246016Y145000D01*
X247032Y146016D01*
X246016D01*
X245000Y147032D01*
X243984Y146016D01*
X242968D01*
X243984Y145000D01*
X242968Y143984D01*
X243984D01*
X245000Y142968D01*
X225000D02*
X226016Y143984D01*
X227032D01*
X226016Y145000D01*
X227032Y146016D01*
X226016D01*
X225000Y147032D01*
X223984Y146016D01*
X222968D01*
X223984Y145000D01*
X222968Y143984D01*
X223984D01*
X225000Y142968D01*
X150000Y272968D02*
X151016Y273984D01*
X152032D01*
X151016Y275000D01*
X152032Y276016D01*
X151016D01*
X150000Y277032D01*
X148984Y276016D01*
X147968D01*
X148984Y275000D01*
X147968Y273984D01*
X148984D01*
X150000Y272968D01*
Y232968D02*
X151016Y233984D01*
X152032D01*
X151016Y235000D01*
X152032Y236016D01*
X151016D01*
X150000Y237032D01*
X148984Y236016D01*
X147968D01*
X148984Y235000D01*
X147968Y233984D01*
X148984D01*
X150000Y232968D01*
Y252968D02*
X151016Y253984D01*
X152032D01*
X151016Y255000D01*
X152032Y256016D01*
X151016D01*
X150000Y257032D01*
X148984Y256016D01*
X147968D01*
X148984Y255000D01*
X147968Y253984D01*
X148984D01*
X150000Y252968D01*
Y212968D02*
X151016Y213984D01*
X152032D01*
X151016Y215000D01*
X152032Y216016D01*
X151016D01*
X150000Y217032D01*
X148984Y216016D01*
X147968D01*
X148984Y215000D01*
X147968Y213984D01*
X148984D01*
X150000Y212968D01*
Y190468D02*
X151016Y191484D01*
X152032D01*
X151016Y192500D01*
X152032Y193516D01*
X151016D01*
X150000Y194532D01*
X148984Y193516D01*
X147968D01*
X148984Y192500D01*
X147968Y191484D01*
X148984D01*
X150000Y190468D01*
X180000Y272968D02*
X181016Y273984D01*
X182032D01*
X181016Y275000D01*
X182032Y276016D01*
X181016D01*
X180000Y277032D01*
X178984Y276016D01*
X177968D01*
X178984Y275000D01*
X177968Y273984D01*
X178984D01*
X180000Y272968D01*
Y232968D02*
X181016Y233984D01*
X182032D01*
X181016Y235000D01*
X182032Y236016D01*
X181016D01*
X180000Y237032D01*
X178984Y236016D01*
X177968D01*
X178984Y235000D01*
X177968Y233984D01*
X178984D01*
X180000Y232968D01*
Y252968D02*
X181016Y253984D01*
X182032D01*
X181016Y255000D01*
X182032Y256016D01*
X181016D01*
X180000Y257032D01*
X178984Y256016D01*
X177968D01*
X178984Y255000D01*
X177968Y253984D01*
X178984D01*
X180000Y252968D01*
Y212968D02*
X181016Y213984D01*
X182032D01*
X181016Y215000D01*
X182032Y216016D01*
X181016D01*
X180000Y217032D01*
X178984Y216016D01*
X177968D01*
X178984Y215000D01*
X177968Y213984D01*
X178984D01*
X180000Y212968D01*
Y190468D02*
X181016Y191484D01*
X182032D01*
X181016Y192500D01*
X182032Y193516D01*
X181016D01*
X180000Y194532D01*
X178984Y193516D01*
X177968D01*
X178984Y192500D01*
X177968Y191484D01*
X178984D01*
X180000Y190468D01*
X165000Y14618D02*
X166016Y15634D01*
X167032D01*
X166016Y16650D01*
X167032Y17666D01*
X166016D01*
X165000Y18682D01*
X163984Y17666D01*
X162968D01*
X163984Y16650D01*
X162968Y15634D01*
X163984D01*
X165000Y14618D01*
Y27326D02*
X166016Y28342D01*
X167032D01*
X166016Y29358D01*
X167032Y30374D01*
X166016D01*
X165000Y31390D01*
X163984Y30374D01*
X162968D01*
X163984Y29358D01*
X162968Y28342D01*
X163984D01*
X165000Y27326D01*
Y40018D02*
X166016Y41034D01*
X167032D01*
X166016Y42050D01*
X167032Y43066D01*
X166016D01*
X165000Y44082D01*
X163984Y43066D01*
X162968D01*
X163984Y42050D01*
X162968Y41034D01*
X163984D01*
X165000Y40018D01*
Y52718D02*
X166016Y53734D01*
X167032D01*
X166016Y54750D01*
X167032Y55766D01*
X166016D01*
X165000Y56782D01*
X163984Y55766D01*
X162968D01*
X163984Y54750D01*
X162968Y53734D01*
X163984D01*
X165000Y52718D01*
Y76918D02*
X166016Y77934D01*
X167032D01*
X166016Y78950D01*
X167032Y79966D01*
X166016D01*
X165000Y80982D01*
X163984Y79966D01*
X162968D01*
X163984Y78950D01*
X162968Y77934D01*
X163984D01*
X165000Y76918D01*
Y89618D02*
X166016Y90634D01*
X167032D01*
X166016Y91650D01*
X167032Y92666D01*
X166016D01*
X165000Y93682D01*
X163984Y92666D01*
X162968D01*
X163984Y91650D01*
X162968Y90634D01*
X163984D01*
X165000Y89618D01*
Y102318D02*
X166016Y103334D01*
X167032D01*
X166016Y104350D01*
X167032Y105366D01*
X166016D01*
X165000Y106382D01*
X163984Y105366D01*
X162968D01*
X163984Y104350D01*
X162968Y103334D01*
X163984D01*
X165000Y102318D01*
X205000Y142968D02*
X206016Y143984D01*
X207032D01*
X206016Y145000D01*
X207032Y146016D01*
X206016D01*
X205000Y147032D01*
X203984Y146016D01*
X202968D01*
X203984Y145000D01*
X202968Y143984D01*
X203984D01*
X205000Y142968D01*
X185000D02*
X186016Y143984D01*
X187032D01*
X186016Y145000D01*
X187032Y146016D01*
X186016D01*
X185000Y147032D01*
X183984Y146016D01*
X182968D01*
X183984Y145000D01*
X182968Y143984D01*
X183984D01*
X185000Y142968D01*
X165000D02*
X166016Y143984D01*
X167032D01*
X166016Y145000D01*
X167032Y146016D01*
X166016D01*
X165000Y147032D01*
X163984Y146016D01*
X162968D01*
X163984Y145000D01*
X162968Y143984D01*
X163984D01*
X165000Y142968D01*
X145000D02*
X146016Y143984D01*
X147032D01*
X146016Y145000D01*
X147032Y146016D01*
X146016D01*
X145000Y147032D01*
X143984Y146016D01*
X142968D01*
X143984Y145000D01*
X142968Y143984D01*
X143984D01*
X145000Y142968D01*
X125000D02*
X126016Y143984D01*
X127032D01*
X126016Y145000D01*
X127032Y146016D01*
X126016D01*
X125000Y147032D01*
X123984Y146016D01*
X122968D01*
X123984Y145000D01*
X122968Y143984D01*
X123984D01*
X125000Y142968D01*
X105000D02*
X106016Y143984D01*
X107032D01*
X106016Y145000D01*
X107032Y146016D01*
X106016D01*
X105000Y147032D01*
X103984Y146016D01*
X102968D01*
X103984Y145000D01*
X102968Y143984D01*
X103984D01*
X105000Y142968D01*
X241500Y55468D02*
X242516Y56484D01*
X243532D01*
X242516Y57500D01*
X243532Y58516D01*
X242516D01*
X241500Y59532D01*
X240484Y58516D01*
X239468D01*
X240484Y57500D01*
X239468Y56484D01*
X240484D01*
X241500Y55468D01*
X256000Y81203D02*
X257016Y82219D01*
X258032D01*
X257016Y83235D01*
X258032Y84251D01*
X257016D01*
X256000Y85267D01*
X254984Y84251D01*
X253968D01*
X254984Y83235D01*
X253968Y82219D01*
X254984D01*
X256000Y81203D01*
X332500Y17968D02*
X333516Y18984D01*
X334532D01*
X333516Y20000D01*
X334532Y21016D01*
X333516D01*
X332500Y22032D01*
X331484Y21016D01*
X330468D01*
X331484Y20000D01*
X330468Y18984D01*
X331484D01*
X332500Y17968D01*
X345250Y55468D02*
X346266Y56484D01*
X347282D01*
X346266Y57500D01*
X347282Y58516D01*
X346266D01*
X345250Y59532D01*
X344234Y58516D01*
X343218D01*
X344234Y57500D01*
X343218Y56484D01*
X344234D01*
X345250Y55468D01*
X408467Y17968D02*
X409483Y18984D01*
X410499D01*
X409483Y20000D01*
X410499Y21016D01*
X409483D01*
X408467Y22032D01*
X407451Y21016D01*
X406435D01*
X407451Y20000D01*
X406435Y18984D01*
X407451D01*
X408467Y17968D01*
Y42968D02*
X409483Y43984D01*
X410499D01*
X409483Y45000D01*
X410499Y46016D01*
X409483D01*
X408467Y47032D01*
X407451Y46016D01*
X406435D01*
X407451Y45000D01*
X406435Y43984D01*
X407451D01*
X408467Y42968D01*
X299000Y55468D02*
X300016Y56484D01*
X301032D01*
X300016Y57500D01*
X301032Y58516D01*
X300016D01*
X299000Y59532D01*
X297984Y58516D01*
X296968D01*
X297984Y57500D01*
X296968Y56484D01*
X297984D01*
X299000Y55468D01*
X165000Y115018D02*
X166016Y116034D01*
X167032D01*
X166016Y117050D01*
X167032Y118066D01*
X166016D01*
X165000Y119082D01*
X163984Y118066D01*
X162968D01*
X163984Y117050D01*
X162968Y116034D01*
X163984D01*
X165000Y115018D01*
D56*
X359532Y117500D02*
G03*
X359532Y117500I-2032J0D01*
G01*
X384532D02*
G03*
X384532Y117500I-2032J0D01*
G01*
X52032Y270000D02*
G03*
X52032Y270000I-2032J0D01*
G01*
Y235000D02*
G03*
X52032Y235000I-2032J0D01*
G01*
M02*
