G04*
G04 #@! TF.GenerationSoftware,Altium Limited,Altium Designer,21.8.1 (53)*
G04*
G04 Layer_Color=32896*
%FSLAX44Y44*%
%MOMM*%
G71*
G04*
G04 #@! TF.SameCoordinates,89A26796-2BA6-48C1-BC3F-9F2CA1C84395*
G04*
G04*
G04 #@! TF.FilePolarity,Positive*
G04*
G01*
G75*
%ADD11C,0.2000*%
%ADD12C,0.2500*%
D11*
X7500Y205000D02*
X115000D01*
X447500Y5000D02*
Y207500D01*
X7500Y55000D02*
X80000D01*
X7500Y105000D02*
X115000D01*
X7500Y155000D02*
X80000D01*
X458003Y273005D02*
X468000D01*
X458003Y283002D01*
Y285501D01*
X460502Y288000D01*
X465501D01*
X468000Y285501D01*
X428013D02*
X430512Y288000D01*
X435510D01*
X438010Y285501D01*
Y283002D01*
X435510Y280502D01*
X430512D01*
X428013Y278003D01*
Y275504D01*
X430512Y273005D01*
X435510D01*
X438010Y275504D01*
X420515Y285501D02*
Y283002D01*
X423015D01*
X418016D01*
X420515D01*
Y275504D01*
X418016Y273005D01*
X408019Y283002D02*
X403021D01*
X400522Y280502D01*
Y273005D01*
X408019D01*
X410519Y275504D01*
X408019Y278003D01*
X400522D01*
X390525Y268006D02*
X388026D01*
X385527Y270506D01*
Y283002D01*
X393024D01*
X395523Y280502D01*
Y275504D01*
X393024Y273005D01*
X385527D01*
X373031D02*
X378029D01*
X380528Y275504D01*
Y280502D01*
X378029Y283002D01*
X373031D01*
X370532Y280502D01*
Y278003D01*
X380528D01*
X350538Y288000D02*
Y273005D01*
X340541D01*
X325546Y288000D02*
X335543D01*
Y273005D01*
X325546D01*
X335543Y280502D02*
X330545D01*
X320548Y288000D02*
Y273005D01*
X313050D01*
X310551Y275504D01*
Y285501D01*
X313050Y288000D01*
X320548D01*
X280561Y285501D02*
X283060Y288000D01*
X288058D01*
X290557Y285501D01*
Y283002D01*
X288058Y280502D01*
X283060D01*
X280561Y278003D01*
Y275504D01*
X283060Y273005D01*
X288058D01*
X290557Y275504D01*
X273063Y285501D02*
Y283002D01*
X275562D01*
X270564D01*
X273063D01*
Y275504D01*
X270564Y273005D01*
X263066Y283002D02*
Y273005D01*
Y278003D01*
X260567Y280502D01*
X258068Y283002D01*
X255569D01*
X248071Y273005D02*
X243073D01*
X245572D01*
Y283002D01*
X248071D01*
X235575Y268006D02*
Y283002D01*
X228078D01*
X225578Y280502D01*
Y275504D01*
X228078Y273005D01*
X235575D01*
X195588Y285501D02*
X198087Y288000D01*
X203086D01*
X205585Y285501D01*
Y275504D01*
X203086Y273005D01*
X198087D01*
X195588Y275504D01*
X188091Y273005D02*
X183092D01*
X180593Y275504D01*
Y280502D01*
X183092Y283002D01*
X188091D01*
X190590Y280502D01*
Y275504D01*
X188091Y273005D01*
X175595D02*
Y283002D01*
X168097D01*
X165598Y280502D01*
Y273005D01*
X158100Y285501D02*
Y283002D01*
X160599D01*
X155601D01*
X158100D01*
Y275504D01*
X155601Y273005D01*
X148104Y283002D02*
Y273005D01*
Y278003D01*
X145604Y280502D01*
X143105Y283002D01*
X140606D01*
X130609Y273005D02*
X125611D01*
X123112Y275504D01*
Y280502D01*
X125611Y283002D01*
X130609D01*
X133108Y280502D01*
Y275504D01*
X130609Y273005D01*
X118113D02*
X113115D01*
X115614D01*
Y288000D01*
X118113D01*
X105617Y273005D02*
X100619D01*
X103118D01*
Y288000D01*
X105617D01*
X85624Y273005D02*
X90622D01*
X93121Y275504D01*
Y280502D01*
X90622Y283002D01*
X85624D01*
X83125Y280502D01*
Y278003D01*
X93121D01*
X78126Y283002D02*
Y273005D01*
Y278003D01*
X75627Y280502D01*
X73128Y283002D01*
X70629D01*
X468000Y245212D02*
Y260208D01*
X460502D01*
X458003Y257708D01*
Y252710D01*
X460502Y250211D01*
X468000D01*
X463002D02*
X458003Y245212D01*
X445507D02*
X450506D01*
X453005Y247712D01*
Y252710D01*
X450506Y255209D01*
X445507D01*
X443008Y252710D01*
Y250211D01*
X453005D01*
X438010Y255209D02*
X433011Y245212D01*
X428013Y255209D01*
X423015Y245212D02*
Y247712D01*
X420515D01*
Y245212D01*
X423015D01*
X395523D02*
X390525D01*
X393024D01*
Y260208D01*
X395523Y257708D01*
X383027Y245212D02*
Y247712D01*
X380528D01*
Y245212D01*
X383027D01*
X360535D02*
X370532D01*
X360535Y255209D01*
Y257708D01*
X363034Y260208D01*
X368032D01*
X370532Y257708D01*
X92000Y82491D02*
X106995D01*
Y72494D01*
Y64997D02*
Y59998D01*
X104496Y57499D01*
X99497D01*
X96998Y59998D01*
Y64997D01*
X99497Y67496D01*
X104496D01*
X106995Y64997D01*
X96998Y50002D02*
Y45003D01*
X99497Y42504D01*
X106995D01*
Y50002D01*
X104496Y52501D01*
X101997Y50002D01*
Y42504D01*
X92000Y27509D02*
X106995D01*
Y35006D01*
X104496Y37506D01*
X99497D01*
X96998Y35006D01*
Y27509D01*
X146995Y173728D02*
Y183724D01*
X136998Y173728D01*
X134499D01*
X132000Y176227D01*
Y181225D01*
X134499Y183724D01*
X146995Y161232D02*
X132000D01*
X139497Y168729D01*
Y158733D01*
X132000Y153734D02*
X141997D01*
X146995Y148736D01*
X141997Y143737D01*
X132000D01*
X146995Y123744D02*
Y118745D01*
Y121245D01*
X132000D01*
X134499Y123744D01*
Y111248D02*
X132000Y108749D01*
Y103750D01*
X134499Y101251D01*
X144496D01*
X146995Y103750D01*
Y108749D01*
X144496Y111248D01*
X134499D01*
X146995Y96253D02*
X136998D01*
X132000Y91254D01*
X136998Y86256D01*
X146995D01*
X139497D01*
Y96253D01*
X146995Y66262D02*
X132000D01*
X136998Y61264D01*
X132000Y56266D01*
X146995D01*
X136998Y48768D02*
Y43770D01*
X139497Y41271D01*
X146995D01*
Y48768D01*
X144496Y51267D01*
X141997Y48768D01*
Y41271D01*
X136998Y36272D02*
X146995Y26275D01*
X141997Y31274D01*
X136998Y26275D01*
X146995Y36272D01*
X106995Y188739D02*
X92000D01*
Y181241D01*
X94499Y178742D01*
X99497D01*
X101997Y181241D01*
Y188739D01*
X106995Y171245D02*
Y166246D01*
X104496Y163747D01*
X99497D01*
X96998Y166246D01*
Y171245D01*
X99497Y173744D01*
X104496D01*
X106995Y171245D01*
X96998Y158749D02*
X104496D01*
X106995Y156250D01*
X104496Y153750D01*
X106995Y151251D01*
X104496Y148752D01*
X96998D01*
X106995Y136256D02*
Y141254D01*
X104496Y143754D01*
X99497D01*
X96998Y141254D01*
Y136256D01*
X99497Y133757D01*
X101997D01*
Y143754D01*
X96998Y128758D02*
X106995D01*
X101997D01*
X99497Y126259D01*
X96998Y123760D01*
Y121261D01*
X455002Y195503D02*
X452503Y198002D01*
Y203001D01*
X455002Y205500D01*
X457501D01*
X460000Y203001D01*
Y198002D01*
X462499Y195503D01*
X464999D01*
X467498Y198002D01*
Y203001D01*
X464999Y205500D01*
X467498Y183007D02*
Y188006D01*
X464999Y190505D01*
X460000D01*
X457501Y188006D01*
Y183007D01*
X460000Y180508D01*
X462499D01*
Y190505D01*
X467498Y175510D02*
X457501D01*
Y168012D01*
X460000Y165513D01*
X467498D01*
Y160515D02*
Y153017D01*
X464999Y150518D01*
X462499Y153017D01*
Y158015D01*
X460000Y160515D01*
X457501Y158015D01*
Y150518D01*
X467498Y143020D02*
Y138022D01*
X464999Y135523D01*
X460000D01*
X457501Y138022D01*
Y143020D01*
X460000Y145519D01*
X464999D01*
X467498Y143020D01*
X457501Y130524D02*
X467498D01*
X462499D01*
X460000Y128025D01*
X457501Y125526D01*
Y123027D01*
X467498Y100534D02*
Y95536D01*
Y98035D01*
X452503D01*
X455002Y100534D01*
X430002Y195503D02*
X427503Y198002D01*
Y203001D01*
X430002Y205500D01*
X432501D01*
X435000Y203001D01*
Y198002D01*
X437499Y195503D01*
X439999D01*
X442498Y198002D01*
Y203001D01*
X439999Y205500D01*
X442498Y183007D02*
Y188006D01*
X439999Y190505D01*
X435000D01*
X432501Y188006D01*
Y183007D01*
X435000Y180508D01*
X437499D01*
Y190505D01*
X442498Y175510D02*
X432501D01*
Y168012D01*
X435000Y165513D01*
X442498D01*
Y160515D02*
Y153017D01*
X439999Y150518D01*
X437499Y153017D01*
Y158015D01*
X435000Y160515D01*
X432501Y158015D01*
Y150518D01*
X442498Y143020D02*
Y138022D01*
X439999Y135523D01*
X435000D01*
X432501Y138022D01*
Y143020D01*
X435000Y145519D01*
X439999D01*
X442498Y143020D01*
X432501Y130524D02*
X442498D01*
X437499D01*
X435000Y128025D01*
X432501Y125526D01*
Y123027D01*
X442498Y90537D02*
Y100534D01*
X432501Y90537D01*
X430002D01*
X427503Y93036D01*
Y98035D01*
X430002Y100534D01*
X405503Y24198D02*
X408002Y26698D01*
X413001D01*
X415500Y24198D01*
Y14202D01*
X413001Y11703D01*
X408002D01*
X405503Y14202D01*
Y19200D01*
X410502D01*
X400505Y11703D02*
Y26698D01*
X390508Y11703D01*
Y26698D01*
X385510D02*
Y11703D01*
X378012D01*
X375513Y14202D01*
Y24198D01*
X378012Y26698D01*
X385510D01*
X415500Y44600D02*
X405503D01*
X410502Y49598D02*
Y39602D01*
X390508Y52098D02*
X400505D01*
Y44600D01*
X395507Y47099D01*
X393007D01*
X390508Y44600D01*
Y39602D01*
X393007Y37102D01*
X398006D01*
X400505Y39602D01*
X385510Y52098D02*
Y42101D01*
X380511Y37102D01*
X375513Y42101D01*
Y52098D01*
X355519Y37102D02*
X350521D01*
X353020D01*
Y52098D01*
X355519Y49598D01*
X343023Y37102D02*
Y47099D01*
X338025Y52098D01*
X333027Y47099D01*
Y37102D01*
Y44600D01*
X343023D01*
X313033Y37102D02*
Y52098D01*
X308035Y47099D01*
X303036Y52098D01*
Y37102D01*
X295539Y47099D02*
X290541D01*
X288041Y44600D01*
Y37102D01*
X295539D01*
X298038Y39602D01*
X295539Y42101D01*
X288041D01*
X283043Y47099D02*
X273046Y37102D01*
X278044Y42101D01*
X273046Y47099D01*
X283043Y37102D01*
X415500Y79997D02*
X410502D01*
X413001D01*
Y65002D01*
X415500D01*
X410502D01*
X403004D02*
Y74998D01*
X395507D01*
X393007Y72499D01*
Y65002D01*
X388009Y60003D02*
Y74998D01*
X380511D01*
X378012Y72499D01*
Y67501D01*
X380511Y65002D01*
X388009D01*
X373014Y74998D02*
Y67501D01*
X370515Y65002D01*
X363017D01*
Y74998D01*
X355519Y77498D02*
Y74998D01*
X358019D01*
X353020D01*
X355519D01*
Y67501D01*
X353020Y65002D01*
D12*
X70000Y184998D02*
Y175002D01*
X65002Y180000D02*
X74998D01*
X70000Y134999D02*
Y125002D01*
Y34998D02*
Y25001D01*
X70000Y84999D02*
Y75002D01*
X65002Y80000D02*
X74998D01*
M02*
