G04*
G04 #@! TF.GenerationSoftware,Altium Limited,Altium Designer,21.8.1 (53)*
G04*
G04 Layer_Physical_Order=2*
G04 Layer_Color=16711680*
%FSLAX44Y44*%
%MOMM*%
G71*
G04*
G04 #@! TF.SameCoordinates,89A26796-2BA6-48C1-BC3F-9F2CA1C84395*
G04*
G04*
G04 #@! TF.FilePolarity,Positive*
G04*
G01*
G75*
%ADD35C,1.5000*%
%ADD45C,0.5000*%
%ADD46R,1.5000X1.5000*%
%ADD47R,1.5240X1.5240*%
%ADD48C,1.5240*%
%ADD49R,1.5240X1.5240*%
%ADD50C,2.8000*%
%ADD51C,0.7500*%
%ADD52C,0.8000*%
%ADD53C,0.7500*%
G36*
X475922Y4078D02*
X4078D01*
Y295922D01*
X475922D01*
Y4078D01*
D02*
G37*
%LPC*%
G36*
X60120Y280120D02*
X51250D01*
Y271250D01*
X60120D01*
Y280120D01*
D02*
G37*
G36*
X48750D02*
X39880D01*
Y271250D01*
X48750D01*
Y280120D01*
D02*
G37*
G36*
X60120Y268750D02*
X51250D01*
Y259880D01*
X60120D01*
Y268750D01*
D02*
G37*
G36*
X48750D02*
X39880D01*
Y259880D01*
X48750D01*
Y268750D01*
D02*
G37*
G36*
X50000Y244703D02*
X47488Y244372D01*
X45148Y243403D01*
X43139Y241861D01*
X41597Y239851D01*
X40627Y237511D01*
X40297Y235000D01*
X40627Y232488D01*
X41597Y230148D01*
X43139Y228139D01*
X45148Y226597D01*
X47488Y225627D01*
X50000Y225297D01*
X52511Y225627D01*
X54851Y226597D01*
X56861Y228139D01*
X58403Y230148D01*
X59372Y232488D01*
X59703Y235000D01*
X59372Y237511D01*
X58403Y239851D01*
X56861Y241861D01*
X54851Y243403D01*
X52511Y244372D01*
X50000Y244703D01*
D02*
G37*
G36*
X42500Y196077D02*
X39364Y195769D01*
X36347Y194854D01*
X33568Y193368D01*
X31132Y191369D01*
X29132Y188932D01*
X27647Y186153D01*
X26732Y183137D01*
X26423Y180000D01*
X26732Y176863D01*
X27647Y173847D01*
X29132Y171068D01*
X31132Y168631D01*
X33568Y166632D01*
X36347Y165146D01*
X39364Y164231D01*
X42500Y163923D01*
X45637Y164231D01*
X48653Y165146D01*
X51432Y166632D01*
X53868Y168631D01*
X55868Y171068D01*
X57354Y173847D01*
X58268Y176863D01*
X58577Y180000D01*
X58268Y183137D01*
X57354Y186153D01*
X55868Y188932D01*
X53868Y191369D01*
X51432Y193368D01*
X48653Y194854D01*
X45637Y195769D01*
X42500Y196077D01*
D02*
G37*
G36*
X45000Y146334D02*
Y132500D01*
X58834D01*
X58761Y133235D01*
X57818Y136345D01*
X56286Y139211D01*
X54224Y141724D01*
X51711Y143786D01*
X48845Y145318D01*
X45735Y146261D01*
X45000Y146334D01*
D02*
G37*
G36*
X40000D02*
X39265Y146261D01*
X36155Y145318D01*
X33289Y143786D01*
X30776Y141724D01*
X28714Y139211D01*
X27182Y136345D01*
X26239Y133235D01*
X26166Y132500D01*
X40000D01*
Y146334D01*
D02*
G37*
G36*
X367620Y127620D02*
X358750D01*
Y118750D01*
X367620D01*
Y127620D01*
D02*
G37*
G36*
X356250D02*
X347380D01*
Y118750D01*
X356250D01*
Y127620D01*
D02*
G37*
G36*
X58834Y127500D02*
X45000D01*
Y113666D01*
X45735Y113739D01*
X48845Y114682D01*
X51711Y116215D01*
X54224Y118276D01*
X56286Y120789D01*
X57818Y123655D01*
X58761Y126765D01*
X58834Y127500D01*
D02*
G37*
G36*
X40000D02*
X26166D01*
X26239Y126765D01*
X27182Y123655D01*
X28714Y120789D01*
X30776Y118276D01*
X33289Y116215D01*
X36155Y114682D01*
X39265Y113739D01*
X40000Y113666D01*
Y127500D01*
D02*
G37*
G36*
X382500Y127203D02*
X379989Y126873D01*
X377649Y125903D01*
X375639Y124361D01*
X374097Y122352D01*
X373128Y120012D01*
X372797Y117500D01*
X372972Y116174D01*
X368775Y111977D01*
X367620Y112455D01*
Y116250D01*
X358750D01*
Y107380D01*
X362545D01*
X363023Y106225D01*
X345832Y89034D01*
X283235D01*
X281734Y88837D01*
X280335Y88257D01*
X279134Y87336D01*
X255098Y63299D01*
X251654D01*
X250153Y63102D01*
X248755Y62523D01*
X248188Y62088D01*
X245376D01*
X244526Y62741D01*
X243066Y63345D01*
X241500Y63552D01*
X239933Y63345D01*
X238474Y62741D01*
X237221Y61779D01*
X236259Y60526D01*
X235654Y59066D01*
X235448Y57500D01*
X235654Y55934D01*
X236259Y54474D01*
X237221Y53221D01*
X238474Y52259D01*
X239933Y51654D01*
X241500Y51448D01*
X243066Y51654D01*
X244526Y52259D01*
X245376Y52912D01*
X248188D01*
X248755Y52477D01*
X250153Y51898D01*
X251654Y51700D01*
X257500D01*
X259001Y51898D01*
X260400Y52477D01*
X261601Y53399D01*
X285637Y77435D01*
X348235D01*
X349736Y77633D01*
X351134Y78212D01*
X352336Y79134D01*
X375546Y102344D01*
X376701Y101866D01*
Y97100D01*
X376898Y95599D01*
X377477Y94200D01*
X378399Y92999D01*
X421055Y50343D01*
X420577Y49188D01*
X412816D01*
X412746Y49279D01*
X411493Y50241D01*
X410033Y50846D01*
X408467Y51052D01*
X406900Y50846D01*
X405441Y50241D01*
X404187Y49279D01*
X403226Y48026D01*
X402621Y46566D01*
X402415Y45000D01*
X402621Y43434D01*
X403226Y41974D01*
X403879Y41123D01*
Y23877D01*
X403226Y23026D01*
X402621Y21566D01*
X402415Y20000D01*
X402621Y18434D01*
X403226Y16974D01*
X404187Y15721D01*
X405441Y14759D01*
X406900Y14154D01*
X408467Y13948D01*
X410033Y14154D01*
X411493Y14759D01*
X412746Y15721D01*
X413708Y16974D01*
X414312Y18434D01*
X414518Y20000D01*
X414312Y21566D01*
X413708Y23026D01*
X413055Y23877D01*
Y40012D01*
X426618D01*
X426702Y39809D01*
X428225Y37825D01*
X430209Y36302D01*
X432520Y35345D01*
X435000Y35018D01*
X437480Y35345D01*
X439791Y36302D01*
X441776Y37825D01*
X442524Y38800D01*
X452476D01*
X453225Y37825D01*
X455209Y36302D01*
X457520Y35345D01*
X460000Y35018D01*
X462480Y35345D01*
X464791Y36302D01*
X466776Y37825D01*
X468298Y39809D01*
X469256Y42120D01*
X469582Y44600D01*
X469256Y47080D01*
X468298Y49391D01*
X466776Y51375D01*
X464791Y52898D01*
X462480Y53856D01*
X460000Y54182D01*
X457520Y53856D01*
X455209Y52898D01*
X453225Y51375D01*
X452476Y50400D01*
X442524D01*
X441776Y51375D01*
X439791Y52898D01*
X437480Y53856D01*
X435000Y54182D01*
X433781Y54021D01*
X428457Y59345D01*
X428935Y60500D01*
X444500D01*
Y79500D01*
X425500D01*
Y63935D01*
X424345Y63457D01*
X388300Y99502D01*
Y109825D01*
X389361Y110639D01*
X390903Y112649D01*
X391872Y114989D01*
X392203Y117500D01*
X391872Y120012D01*
X390903Y122352D01*
X389361Y124361D01*
X387352Y125903D01*
X385011Y126873D01*
X382500Y127203D01*
D02*
G37*
G36*
X356250Y116250D02*
X347380D01*
Y107380D01*
X356250D01*
Y116250D01*
D02*
G37*
G36*
X257250Y89626D02*
Y84485D01*
X262392D01*
X262333Y84932D01*
X261678Y86513D01*
X260636Y87871D01*
X259278Y88912D01*
X257697Y89567D01*
X257250Y89626D01*
D02*
G37*
G36*
X254750D02*
X254303Y89567D01*
X252722Y88912D01*
X251364Y87871D01*
X250322Y86513D01*
X249667Y84932D01*
X249609Y84485D01*
X254750D01*
Y89626D01*
D02*
G37*
G36*
X262392Y81985D02*
X257250D01*
Y76843D01*
X257697Y76902D01*
X259278Y77557D01*
X260636Y78599D01*
X261678Y79957D01*
X262333Y81538D01*
X262392Y81985D01*
D02*
G37*
G36*
X254750D02*
X249609D01*
X249667Y81538D01*
X250322Y79957D01*
X251364Y78599D01*
X252722Y77557D01*
X254303Y76902D01*
X254750Y76843D01*
Y81985D01*
D02*
G37*
G36*
X42500Y96078D02*
X39364Y95769D01*
X36347Y94854D01*
X33568Y93368D01*
X31132Y91369D01*
X29132Y88932D01*
X27647Y86153D01*
X26732Y83137D01*
X26423Y80000D01*
X26732Y76864D01*
X27647Y73848D01*
X29132Y71068D01*
X31132Y68632D01*
X33568Y66632D01*
X36347Y65147D01*
X39364Y64232D01*
X42500Y63923D01*
X45637Y64232D01*
X48653Y65147D01*
X51432Y66632D01*
X53868Y68632D01*
X55868Y71068D01*
X57354Y73848D01*
X58268Y76864D01*
X58577Y80000D01*
X58268Y83137D01*
X57354Y86153D01*
X55868Y88932D01*
X53868Y91369D01*
X51432Y93368D01*
X48653Y94854D01*
X45637Y95769D01*
X42500Y96078D01*
D02*
G37*
G36*
X469500Y79500D02*
X450500D01*
Y60500D01*
X469500D01*
Y79500D01*
D02*
G37*
G36*
X346500Y63891D02*
Y58750D01*
X351642D01*
X351583Y59197D01*
X350928Y60778D01*
X349886Y62136D01*
X348528Y63178D01*
X346947Y63833D01*
X346500Y63891D01*
D02*
G37*
G36*
X344000D02*
X343553Y63833D01*
X341972Y63178D01*
X340614Y62136D01*
X339572Y60778D01*
X338918Y59197D01*
X338859Y58750D01*
X344000D01*
Y63891D01*
D02*
G37*
G36*
X300250D02*
Y58750D01*
X305392D01*
X305333Y59197D01*
X304678Y60778D01*
X303636Y62136D01*
X302278Y63178D01*
X300697Y63833D01*
X300250Y63891D01*
D02*
G37*
G36*
X297750D02*
X297304Y63833D01*
X295722Y63178D01*
X294364Y62136D01*
X293323Y60778D01*
X292668Y59197D01*
X292609Y58750D01*
X297750D01*
Y63891D01*
D02*
G37*
G36*
X351642Y56250D02*
X346500D01*
Y51108D01*
X346947Y51167D01*
X348528Y51822D01*
X349886Y52864D01*
X350928Y54222D01*
X351583Y55803D01*
X351642Y56250D01*
D02*
G37*
G36*
X344000D02*
X338859D01*
X338918Y55803D01*
X339572Y54222D01*
X340614Y52864D01*
X341972Y51822D01*
X343553Y51167D01*
X344000Y51108D01*
Y56250D01*
D02*
G37*
G36*
X305392D02*
X300250D01*
Y51108D01*
X300697Y51167D01*
X302278Y51822D01*
X303636Y52864D01*
X304678Y54222D01*
X305333Y55803D01*
X305392Y56250D01*
D02*
G37*
G36*
X297750D02*
X292609D01*
X292668Y55803D01*
X293323Y54222D01*
X294364Y52864D01*
X295722Y51822D01*
X297304Y51167D01*
X297750Y51108D01*
Y56250D01*
D02*
G37*
G36*
X333750Y26392D02*
Y21250D01*
X338891D01*
X338833Y21697D01*
X338178Y23278D01*
X337136Y24636D01*
X335778Y25678D01*
X334197Y26333D01*
X333750Y26392D01*
D02*
G37*
G36*
X331250D02*
X330803Y26333D01*
X329222Y25678D01*
X327864Y24636D01*
X326822Y23278D01*
X326167Y21697D01*
X326109Y21250D01*
X331250D01*
Y26392D01*
D02*
G37*
G36*
X461250Y29122D02*
Y20450D01*
X469922D01*
X469743Y21811D01*
X468735Y24243D01*
X467132Y26332D01*
X465043Y27935D01*
X462611Y28943D01*
X461250Y29122D01*
D02*
G37*
G36*
X436250D02*
Y20450D01*
X444922D01*
X444743Y21811D01*
X443735Y24243D01*
X442132Y26332D01*
X440043Y27935D01*
X437611Y28943D01*
X436250Y29122D01*
D02*
G37*
G36*
X433750D02*
X432390Y28943D01*
X429957Y27935D01*
X427868Y26332D01*
X426265Y24243D01*
X425258Y21811D01*
X425078Y20450D01*
X433750D01*
Y29122D01*
D02*
G37*
G36*
X458750D02*
X457390Y28943D01*
X454957Y27935D01*
X452868Y26332D01*
X451265Y24243D01*
X450258Y21811D01*
X450078Y20450D01*
X458750D01*
Y29122D01*
D02*
G37*
G36*
X42500Y46077D02*
X39364Y45768D01*
X36347Y44853D01*
X33568Y43368D01*
X31132Y41368D01*
X29132Y38932D01*
X27647Y36152D01*
X26732Y33136D01*
X26423Y30000D01*
X26732Y26863D01*
X27647Y23847D01*
X29132Y21068D01*
X31132Y18631D01*
X33568Y16632D01*
X36347Y15146D01*
X39364Y14231D01*
X42500Y13922D01*
X45637Y14231D01*
X48653Y15146D01*
X51432Y16632D01*
X53868Y18631D01*
X55868Y21068D01*
X57354Y23847D01*
X58268Y26863D01*
X58577Y30000D01*
X58268Y33136D01*
X57354Y36152D01*
X55868Y38932D01*
X53868Y41368D01*
X51432Y43368D01*
X48653Y44853D01*
X45637Y45768D01*
X42500Y46077D01*
D02*
G37*
G36*
X338891Y18750D02*
X333750D01*
Y13609D01*
X334197Y13667D01*
X335778Y14322D01*
X337136Y15364D01*
X338178Y16722D01*
X338833Y18303D01*
X338891Y18750D01*
D02*
G37*
G36*
X331250D02*
X326109D01*
X326167Y18303D01*
X326822Y16722D01*
X327864Y15364D01*
X329222Y14322D01*
X330803Y13667D01*
X331250Y13609D01*
Y18750D01*
D02*
G37*
G36*
X469922Y17950D02*
X461250D01*
Y9278D01*
X462611Y9457D01*
X465043Y10465D01*
X467132Y12068D01*
X468735Y14157D01*
X469743Y16589D01*
X469922Y17950D01*
D02*
G37*
G36*
X444922D02*
X436250D01*
Y9278D01*
X437611Y9457D01*
X440043Y10465D01*
X442132Y12068D01*
X443735Y14157D01*
X444743Y16589D01*
X444922Y17950D01*
D02*
G37*
G36*
X458750D02*
X450078D01*
X450258Y16589D01*
X451265Y14157D01*
X452868Y12068D01*
X454957Y10465D01*
X457390Y9457D01*
X458750Y9278D01*
Y17950D01*
D02*
G37*
G36*
X433750D02*
X425078D01*
X425258Y16589D01*
X426265Y14157D01*
X427868Y12068D01*
X429957Y10465D01*
X432390Y9457D01*
X433750Y9278D01*
Y17950D01*
D02*
G37*
%LPD*%
D35*
X435000Y44600D02*
D03*
Y19200D02*
D03*
X460000D02*
D03*
Y44600D02*
D03*
D45*
X408467Y45000D02*
X408867Y44600D01*
X435000D01*
X408467Y20000D02*
Y45000D01*
X241500Y57500D02*
X251654D01*
D46*
X435000Y70000D02*
D03*
X460000D02*
D03*
D47*
X357500Y117500D02*
D03*
D48*
X382500D02*
D03*
X50000Y235000D02*
D03*
D49*
Y270000D02*
D03*
D50*
X42500Y180000D02*
D03*
Y130000D02*
D03*
Y80000D02*
D03*
Y30000D02*
D03*
D51*
X406900Y56971D02*
D03*
X405000Y145000D02*
D03*
X385000D02*
D03*
X365000D02*
D03*
X345000D02*
D03*
X325000D02*
D03*
X305000D02*
D03*
X285000D02*
D03*
X265000D02*
D03*
X245000D02*
D03*
X225000D02*
D03*
X150000Y275000D02*
D03*
Y235000D02*
D03*
Y255000D02*
D03*
Y215000D02*
D03*
Y192500D02*
D03*
X180000Y275000D02*
D03*
Y235000D02*
D03*
Y255000D02*
D03*
Y215000D02*
D03*
Y192500D02*
D03*
X165000Y16650D02*
D03*
Y29358D02*
D03*
Y42050D02*
D03*
Y54750D02*
D03*
Y78950D02*
D03*
Y91650D02*
D03*
Y104350D02*
D03*
X205000Y145000D02*
D03*
X185000D02*
D03*
X165000D02*
D03*
X145000D02*
D03*
X125000D02*
D03*
X105000D02*
D03*
X165000Y117050D02*
D03*
D52*
X241500Y57500D02*
D03*
X256000Y83235D02*
D03*
X332500Y20000D02*
D03*
X345250Y57500D02*
D03*
X408467Y20000D02*
D03*
Y45000D02*
D03*
X299000Y57500D02*
D03*
D53*
X348235Y83235D02*
X382500Y117500D01*
X283235Y83235D02*
X348235D01*
X382500Y97100D02*
Y117500D01*
Y97100D02*
X435000Y44600D01*
X257500Y57500D02*
X283235Y83235D01*
X251654Y57500D02*
X257500D01*
X435000Y44600D02*
X460000D01*
M02*
