G04*
G04 #@! TF.GenerationSoftware,Altium Limited,Altium Designer,21.8.1 (53)*
G04*
G04 Layer_Color=16711935*
%FSLAX44Y44*%
%MOMM*%
G71*
G04*
G04 #@! TF.SameCoordinates,89A26796-2BA6-48C1-BC3F-9F2CA1C84395*
G04*
G04*
G04 #@! TF.FilePolarity,Positive*
G04*
G01*
G75*
%ADD11C,0.2000*%
%ADD54C,0.1000*%
D11*
X514501Y110511D02*
X512002Y113011D01*
Y118009D01*
X514501Y120508D01*
X517000D01*
X519499Y118009D01*
Y115510D01*
Y118009D01*
X521998Y120508D01*
X524498D01*
X526997Y118009D01*
Y113011D01*
X524498Y110511D01*
X514501Y125506D02*
X512002Y128006D01*
Y133004D01*
X514501Y135503D01*
X524498D01*
X526997Y133004D01*
Y128006D01*
X524498Y125506D01*
X514501D01*
X529496Y143001D02*
X526997Y145500D01*
X524498D01*
Y143001D01*
X526997D01*
Y145500D01*
X529496Y143001D01*
X531995Y140502D01*
X514501Y155497D02*
X512002Y157996D01*
Y162994D01*
X514501Y165494D01*
X524498D01*
X526997Y162994D01*
Y157996D01*
X524498Y155497D01*
X514501D01*
Y170492D02*
X512002Y172991D01*
Y177990D01*
X514501Y180489D01*
X524498D01*
X526997Y177990D01*
Y172991D01*
X524498Y170492D01*
X514501D01*
X208009Y318003D02*
Y332998D01*
X200511Y325501D01*
X210508D01*
X215506Y330499D02*
X218006Y332998D01*
X223004D01*
X225503Y330499D01*
Y328000D01*
X223004Y325501D01*
X225503Y323002D01*
Y320502D01*
X223004Y318003D01*
X218006D01*
X215506Y320502D01*
Y323002D01*
X218006Y325501D01*
X215506Y328000D01*
Y330499D01*
X218006Y325501D02*
X223004D01*
X233001Y315504D02*
X235500Y318003D01*
Y320502D01*
X233001D01*
Y318003D01*
X235500D01*
X233001Y315504D01*
X230502Y313005D01*
X245497Y330499D02*
X247996Y332998D01*
X252994D01*
X255494Y330499D01*
Y320502D01*
X252994Y318003D01*
X247996D01*
X245497Y320502D01*
Y330499D01*
X260492D02*
X262991Y332998D01*
X267990D01*
X270489Y330499D01*
Y320502D01*
X267990Y318003D01*
X262991D01*
X260492Y320502D01*
Y330499D01*
D54*
X515000Y300000D02*
X520000Y285000D01*
X510000D02*
X515000Y300000D01*
X510000Y15000D02*
X515000Y0D01*
X520000Y15000D01*
X515000Y184989D02*
Y300000D01*
Y0D02*
Y106011D01*
X483000Y300000D02*
X517500D01*
X483000Y0D02*
X517500D01*
X0Y330000D02*
X15000Y335000D01*
X0Y330000D02*
X15000Y325000D01*
X465000D02*
X480000Y330000D01*
X465000Y335000D02*
X480000Y330000D01*
X0D02*
X196011D01*
X274989D02*
X480000D01*
X0Y303000D02*
Y332500D01*
X480000Y303000D02*
Y332500D01*
M02*
