G04*
G04 #@! TF.GenerationSoftware,Altium Limited,Altium Designer,21.8.1 (53)*
G04*
G04 Layer_Color=8388736*
%FSLAX44Y44*%
%MOMM*%
G71*
G04*
G04 #@! TF.SameCoordinates,89A26796-2BA6-48C1-BC3F-9F2CA1C84395*
G04*
G04*
G04 #@! TF.FilePolarity,Negative*
G04*
G01*
G75*
%ADD15R,0.9000X0.9500*%
%ADD16O,1.6200X0.7100*%
%ADD17R,1.6200X0.7100*%
%ADD18C,1.6000*%
%ADD19R,1.6000X1.6000*%
%ADD20R,1.9000X0.7000*%
%ADD21O,1.9000X0.7000*%
%ADD22R,0.9500X0.9000*%
%ADD23R,8.7000X10.6000*%
%ADD24R,4.2500X1.2000*%
G04:AMPARAMS|DCode=25|XSize=2.6mm|YSize=2.4mm|CornerRadius=0.3375mm|HoleSize=0mm|Usage=FLASHONLY|Rotation=270.000|XOffset=0mm|YOffset=0mm|HoleType=Round|Shape=RoundedRectangle|*
%AMROUNDEDRECTD25*
21,1,2.6000,1.7250,0,0,270.0*
21,1,1.9250,2.4000,0,0,270.0*
1,1,0.6750,-0.8625,-0.9625*
1,1,0.6750,-0.8625,0.9625*
1,1,0.6750,0.8625,0.9625*
1,1,0.6750,0.8625,-0.9625*
%
%ADD25ROUNDEDRECTD25*%
%ADD26R,5.9000X3.2000*%
%ADD27R,1.6000X1.6000*%
%ADD28R,1.6240X1.6240*%
%ADD29C,1.6240*%
%ADD30R,1.6240X1.6240*%
%ADD31C,2.9000*%
D15*
X359750Y20000D02*
D03*
X345250D02*
D03*
Y45000D02*
D03*
X359750D02*
D03*
X299000Y70000D02*
D03*
X313500D02*
D03*
X380250Y20000D02*
D03*
X394750D02*
D03*
X380250Y45000D02*
D03*
X394750D02*
D03*
X241500Y70000D02*
D03*
X256000D02*
D03*
D16*
X125700Y54750D02*
D03*
Y42050D02*
D03*
Y29350D02*
D03*
Y16650D02*
D03*
X184300Y54750D02*
D03*
Y42050D02*
D03*
Y29350D02*
D03*
X125700Y117050D02*
D03*
Y104350D02*
D03*
Y91650D02*
D03*
Y78950D02*
D03*
X184300Y117050D02*
D03*
Y104350D02*
D03*
Y91650D02*
D03*
D17*
Y16650D02*
D03*
Y78950D02*
D03*
D18*
X277500Y15000D02*
D03*
Y40400D02*
D03*
X252100D02*
D03*
X302900Y15000D02*
D03*
Y40400D02*
D03*
X435000Y44600D02*
D03*
Y19200D02*
D03*
X460000D02*
D03*
Y44600D02*
D03*
D19*
X252100Y15000D02*
D03*
D20*
X313500Y93450D02*
D03*
D21*
Y106150D02*
D03*
Y118850D02*
D03*
Y131550D02*
D03*
X241500Y93450D02*
D03*
Y106150D02*
D03*
Y118850D02*
D03*
Y131550D02*
D03*
D22*
X212500Y40250D02*
D03*
Y54750D02*
D03*
Y117050D02*
D03*
Y131550D02*
D03*
D23*
X162500Y235000D02*
D03*
D24*
X265000Y252000D02*
D03*
Y269000D02*
D03*
Y201000D02*
D03*
Y235000D02*
D03*
Y218000D02*
D03*
D25*
X322500Y192000D02*
D03*
Y235000D02*
D03*
D26*
X412498Y275500D02*
D03*
Y174500D02*
D03*
D27*
X435000Y70000D02*
D03*
X460000D02*
D03*
D28*
X357500Y117500D02*
D03*
D29*
X382500D02*
D03*
X50000Y235000D02*
D03*
D30*
Y270000D02*
D03*
D31*
X42500Y180000D02*
D03*
Y130000D02*
D03*
Y80000D02*
D03*
Y30000D02*
D03*
M02*
