M48
;Layer_Color=9474304
;FILE_FORMAT=4:4
METRIC,LZ
;TYPE=PLATED
T1F00S00C0.4000
T2F00S00C0.7500
T3F00S00C0.9000
T4F00S00C1.5000
%
T01
X00165Y0001665
Y00029358
Y0004205
Y0005475
Y0007895
Y0009165
Y0010435
Y0011705
X00165Y00145
X00185
X00205
X00225
X00245
X00265
X00285
X00305
X00325
X00345
X00365
X00385
X0034525Y000575
X00299
X002415
X00256Y00083235
X003325Y0002
X00145Y00145
X00125
X00105
X0015Y001925
Y00215
Y00235
Y00255
Y00275
X0018
Y00255
Y00235
Y00215
Y001925
X00405Y00145
X004069Y00056971
X00408467Y00045
Y0002
T02
X0005Y00235
Y0027
X003575Y001175
X003825
T03
X00435Y000192
X0046
Y000446
X00435
Y0007
X0046
T04
X000425Y0003
Y0008
Y0013
Y0018
M30
